<svg width="17" height="17" viewBox="0 0 17 17" fill="none" xmlns="http://www.w3.org/2000/svg">
<path fill-rule="evenodd" clip-rule="evenodd" d="M16.6667 8.33333C16.6667 12.9358 12.9358 16.6667 8.33333 16.6667C3.73083 16.6667 0 12.9358 0 8.33333C0 3.73083 3.73083 0 8.33333 0C12.9358 0 16.6667 3.73083 16.6667 8.33333ZM12.4217 13.6C11.139 14.5965 9.53675 15.0904 7.9157 14.9891C6.29465 14.8877 4.76636 14.1981 3.61781 13.0496C2.46927 11.9012 1.77949 10.373 1.67801 8.75192C1.57652 7.13088 2.07032 5.52855 3.06667 4.24583L12.4217 13.6ZM13.6 12.4217L4.245 3.06667C5.52764 2.06956 7.13024 1.57513 8.75171 1.67628C10.3732 1.77743 11.9019 2.46719 13.0507 3.61597C14.1995 4.76475 14.8892 6.29348 14.9904 7.91495C15.0915 9.53642 14.5971 11.139 13.6 12.4217Z" fill="#FF4D62"/>
</svg>
