<svg width="20" height="20" viewBox="0 0 20 20" fill="none" xmlns="http://www.w3.org/2000/svg">
<path d="M9.99935 1.6665C5.40435 1.6665 1.66602 5.40484 1.66602 9.99984C1.66602 14.5948 5.40435 18.3332 9.99935 18.3332C14.5943 18.3332 18.3327 14.5948 18.3327 9.99984C18.3327 5.40484 14.5943 1.6665 9.99935 1.6665ZM9.99935 16.6665C6.32352 16.6665 3.33268 13.6757 3.33268 9.99984C3.33268 6.324 6.32352 3.33317 9.99935 3.33317C13.6752 3.33317 16.666 6.324 16.666 9.99984C16.666 13.6757 13.6752 16.6665 9.99935 16.6665Z" fill="#4D82FF"/>
<path d="M10.8327 5.8335H9.16602V10.3452L11.9102 13.0893L13.0885 11.911L10.8327 9.65516V5.8335Z" fill="#4D82FF"/>
</svg>
