<svg width="16" height="16" viewBox="0 0 16 16" fill="none" xmlns="http://www.w3.org/2000/svg">
<path d="M10.4733 8.47332C11.1269 7.95909 11.604 7.25393 11.8382 6.45594C12.0723 5.65796 12.0519 4.80682 11.7799 4.02096C11.5078 3.23509 10.9975 2.55358 10.32 2.07122C9.64259 1.58886 8.83163 1.32965 8 1.32965C7.16836 1.32965 6.35741 1.58886 5.67995 2.07122C5.0025 2.55358 4.49223 3.23509 4.22014 4.02096C3.94805 4.80682 3.92767 5.65796 4.16184 6.45594C4.396 7.25393 4.87307 7.95909 5.52666 8.47332C4.40672 8.92201 3.42952 9.66621 2.69926 10.6266C1.969 11.587 1.51304 12.7275 1.38 13.9266C1.37037 14.0142 1.37808 14.1028 1.40268 14.1874C1.42729 14.2719 1.46831 14.3508 1.52341 14.4195C1.63468 14.5583 1.79652 14.6472 1.97333 14.6666C2.15014 14.6861 2.32744 14.6345 2.46621 14.5232C2.60499 14.412 2.69388 14.2501 2.71333 14.0733C2.85972 12.7701 3.48112 11.5665 4.45881 10.6925C5.4365 9.8185 6.70193 9.33533 8.01333 9.33533C9.32473 9.33533 10.5902 9.8185 11.5679 10.6925C12.5455 11.5665 13.1669 12.7701 13.3133 14.0733C13.3315 14.2371 13.4096 14.3884 13.5327 14.498C13.6559 14.6076 13.8152 14.6676 13.98 14.6666H14.0533C14.2281 14.6465 14.3878 14.5582 14.4977 14.4208C14.6076 14.2835 14.6587 14.1082 14.64 13.9333C14.5063 12.7308 14.0479 11.5873 13.3139 10.6255C12.5799 9.6636 11.5979 8.91963 10.4733 8.47332ZM8 7.99998C7.47258 7.99998 6.95701 7.84358 6.51848 7.55057C6.07995 7.25755 5.73815 6.84107 5.53632 6.3538C5.33449 5.86653 5.28168 5.33036 5.38457 4.81307C5.48746 4.29579 5.74144 3.82064 6.11438 3.4477C6.48732 3.07476 6.96247 2.82078 7.47976 2.71789C7.99704 2.61499 8.53322 2.6678 9.02049 2.86964C9.50776 3.07147 9.92423 3.41326 10.2173 3.85179C10.5103 4.29033 10.6667 4.8059 10.6667 5.33331C10.6667 6.04056 10.3857 6.71884 9.88562 7.21893C9.38552 7.71903 8.70724 7.99998 8 7.99998Z" fill="#6B6B7E"/>
</svg>
