<svg width="28" height="26" viewBox="0 0 28 26" fill="none" xmlns="http://www.w3.org/2000/svg">
<path d="M18.0013 22.504C19.1387 22.8339 20.3171 23.0008 21.5013 23C23.4061 23.0045 25.2862 22.5702 26.996 21.7307C26.9996 21.6542 27.0013 21.5773 27.0013 21.5C27.0014 20.3238 26.6245 19.1786 25.9259 18.2325C25.2272 17.2863 24.2437 16.589 23.1196 16.243C21.9955 15.8969 20.7901 15.9203 19.6803 16.3097C18.5705 16.6992 17.6147 17.4341 16.9533 18.4067M16.9533 18.4067C16.0455 16.752 14.6113 15.4465 12.8796 14.6961C11.1478 13.9457 9.21547 13.793 7.38732 14.2621C5.55917 14.7312 3.93914 15.7955 2.78264 17.287C1.62615 18.7786 0.998978 20.6126 1 22.5L1.00133 22.6453C3.484 24.14 6.392 25 9.5 25C12.4956 25.0063 15.4358 24.1919 18.0013 22.6453V22.504V22.5C18.0013 21.016 17.6213 19.62 16.9533 18.4067ZM14.0013 5.5C14.0013 6.69347 13.5272 7.83807 12.6833 8.68198C11.8394 9.52589 10.6948 10 9.50133 10C8.30786 10 7.16327 9.52589 6.31935 8.68198C5.47544 7.83807 5.00133 6.69347 5.00133 5.5C5.00133 4.30653 5.47544 3.16193 6.31935 2.31802C7.16327 1.47411 8.30786 1 9.50133 1C10.6948 1 11.8394 1.47411 12.6833 2.31802C13.5272 3.16193 14.0013 4.30653 14.0013 5.5ZM25.0013 8.5C25.0013 9.42826 24.6326 10.3185 23.9762 10.9749C23.3198 11.6313 22.4296 12 21.5013 12C20.5731 12 19.6828 11.6313 19.0265 10.9749C18.3701 10.3185 18.0013 9.42826 18.0013 8.5C18.0013 7.57174 18.3701 6.6815 19.0265 6.02513C19.6828 5.36875 20.5731 5 21.5013 5C22.4296 5 23.3198 5.36875 23.9762 6.02513C24.6326 6.6815 25.0013 7.57174 25.0013 8.5Z" stroke="#25C98E" stroke-width="2" stroke-linecap="round" stroke-linejoin="round"/>
</svg>
