<svg width="16" height="16" viewBox="0 0 16 16" fill="none" xmlns="http://www.w3.org/2000/svg">
<path d="M3.33333 8H2L8 2L14 8H12.6667M3.33333 8V12.6667C3.33333 13.0203 3.47381 13.3594 3.72386 13.6095C3.97391 13.8595 4.31304 14 4.66667 14H11.3333C11.687 14 12.0261 13.8595 12.2761 13.6095C12.5262 13.3594 12.6667 13.0203 12.6667 12.6667V8" stroke="#6B6B7E" stroke-width="1.5" stroke-linecap="round" stroke-linejoin="round"/>
<path d="M6 13.9998V9.99984C6 9.64622 6.14048 9.30708 6.39052 9.05703C6.64057 8.80698 6.97971 8.6665 7.33333 8.6665H8.66667C9.02029 8.6665 9.35943 8.80698 9.60948 9.05703C9.85952 9.30708 10 9.64622 10 9.99984V13.9998" stroke="#6B6B7E" stroke-width="1.5" stroke-linecap="round" stroke-linejoin="round"/>
</svg>
