<svg width="3" height="12" viewBox="0 0 3 12" fill="none" xmlns="http://www.w3.org/2000/svg">
<path d="M2.4904 1.2448C2.49045 1.40832 2.4583 1.57025 2.39577 1.72135C2.33324 1.87244 2.24156 2.00974 2.12597 2.12541C2.01038 2.24107 1.87314 2.33284 1.72209 2.39546C1.57103 2.45809 1.40912 2.49035 1.2456 2.4904C1.08208 2.49045 0.920147 2.4583 0.769052 2.39577C0.617957 2.33324 0.480658 2.24156 0.364993 2.12597C0.249329 2.01038 0.157564 1.87314 0.0949387 1.72209C0.032313 1.57103 5.25896e-05 1.40912 6.43312e-08 1.2456C-0.000106015 0.915353 0.130983 0.598589 0.364428 0.364994C0.597873 0.131398 0.914552 0.000106151 1.2448 6.43397e-08C1.57505 -0.000106022 1.89181 0.130983 2.12541 0.364428C2.359 0.597873 2.49029 0.914552 2.4904 1.2448Z" fill="#A0A0B5"/>
<path d="M1.2448 6.76304C1.93228 6.76304 2.4896 6.20572 2.4896 5.51824C2.4896 4.83075 1.93228 4.27344 1.2448 4.27344C0.557316 4.27344 0 4.83075 0 5.51824C0 6.20572 0.557316 6.76304 1.2448 6.76304Z" fill="#A0A0B5"/>
<path d="M1.2448 11.0375C1.93228 11.0375 2.4896 10.4801 2.4896 9.79265C2.4896 9.10517 1.93228 8.54785 1.2448 8.54785C0.557316 8.54785 0 9.10517 0 9.79265C0 10.4801 0.557316 11.0375 1.2448 11.0375Z" fill="#A0A0B5"/>
</svg>
