<svg width="14" height="14" viewBox="0 0 14 14" fill="none" xmlns="http://www.w3.org/2000/svg">
<path d="M6.35417 9.59417C6.25694 9.55917 6.16667 9.5 6.08333 9.41667L3.08333 6.41667C2.91667 6.25 2.83667 6.05556 2.84333 5.83334C2.85 5.61111 2.93 5.41667 3.08333 5.25C3.25 5.08334 3.44806 4.99667 3.6775 4.99C3.90694 4.98334 4.10472 5.06306 4.27083 5.22917L5.83333 6.79167V0.833336C5.83333 0.597225 5.91333 0.399447 6.07333 0.240003C6.23333 0.0805585 6.43111 0.000558429 6.66667 2.87356e-06C6.90222 -0.000552682 7.10028 0.0794474 7.26083 0.240003C7.42139 0.400559 7.50111 0.598336 7.5 0.833336V6.79167L9.0625 5.22917C9.22917 5.0625 9.42722 4.9825 9.65667 4.98917C9.88611 4.99584 10.0839 5.08278 10.25 5.25C10.4028 5.41667 10.4828 5.61111 10.49 5.83334C10.4972 6.05556 10.4172 6.25 10.25 6.41667L7.25 9.41667C7.16667 9.5 7.07639 9.55917 6.97917 9.59417C6.88194 9.62917 6.77778 9.64639 6.66667 9.64584C6.55556 9.64528 6.45139 9.62806 6.35417 9.59417ZM1.66667 13.3333C1.20833 13.3333 0.816111 13.1703 0.49 12.8442C0.163889 12.5181 0.000555556 12.1256 0 11.6667V10C0 9.76389 0.0800001 9.56611 0.24 9.40667C0.4 9.24722 0.597778 9.16723 0.833333 9.16667C1.06889 9.16611 1.26694 9.24611 1.4275 9.40667C1.58806 9.56723 1.66778 9.765 1.66667 10V11.6667H11.6667V10C11.6667 9.76389 11.7467 9.56611 11.9067 9.40667C12.0667 9.24722 12.2644 9.16723 12.5 9.16667C12.7356 9.16611 12.9336 9.24611 13.0942 9.40667C13.2547 9.56723 13.3344 9.765 13.3333 10V11.6667C13.3333 12.125 13.1703 12.5175 12.8442 12.8442C12.5181 13.1708 12.1256 13.1672 11.6667 13.1667L1.66667 13.3333Z" fill="#A0A0B5"/>
</svg>
