<svg width="16" height="16" viewBox="0 0 16 16" fill="none" xmlns="http://www.w3.org/2000/svg">
<path d="M7.74935 10.342C7.67157 10.314 7.59935 10.2667 7.53268 10.2L5.13268 7.80002C4.99935 7.66669 4.93535 7.51113 4.94068 7.33336C4.94602 7.15558 5.01002 7.00002 5.13268 6.86669C5.26602 6.73336 5.42446 6.66402 5.60802 6.65869C5.79157 6.65336 5.94979 6.71713 6.08268 6.85002L7.33268 8.10002V3.33336C7.33268 3.14447 7.39668 2.98624 7.52468 2.85869C7.65268 2.73113 7.8109 2.66713 7.99935 2.66669C8.18779 2.66624 8.34624 2.73024 8.47468 2.85869C8.60313 2.98713 8.6669 3.14536 8.66602 3.33336V8.10002L9.91602 6.85002C10.0493 6.71669 10.2078 6.65269 10.3913 6.65802C10.5749 6.66336 10.7331 6.73291 10.866 6.86669C10.9882 7.00002 11.0522 7.15558 11.058 7.33336C11.0638 7.51113 10.9998 7.66669 10.866 7.80002L8.46602 10.2C8.39935 10.2667 8.32713 10.314 8.24935 10.342C8.17157 10.37 8.08824 10.3838 7.99935 10.3834C7.91046 10.3829 7.82713 10.3691 7.74935 10.342ZM3.99935 13.3334C3.63268 13.3334 3.3189 13.2029 3.05802 12.942C2.79713 12.6811 2.66646 12.3671 2.66602 12V10.6667C2.66602 10.4778 2.73002 10.3196 2.85802 10.192C2.98602 10.0645 3.14424 10.0005 3.33268 10C3.52113 9.99958 3.67957 10.0636 3.80802 10.192C3.93646 10.3205 4.00024 10.4787 3.99935 10.6667V12H11.9993V10.6667C11.9993 10.4778 12.0633 10.3196 12.1913 10.192C12.3193 10.0645 12.4776 10.0005 12.666 10C12.8545 9.99958 13.0129 10.0636 13.1413 10.192C13.2698 10.3205 13.3336 10.4787 13.3327 10.6667V12C13.3327 12.3667 13.2022 12.6807 12.9413 12.942C12.6805 13.2034 12.3665 13.2005 11.9993 13.2L3.99935 13.3334Z" fill="white"/>
</svg>
