<svg width="14" height="11" viewBox="0 0 14 11" fill="none" xmlns="http://www.w3.org/2000/svg">
<path d="M2.25 0C1.65326 0 1.08097 0.237053 0.65901 0.65901C0.237053 1.08097 0 1.65326 0 2.25V8.75C0 9.34674 0.237053 9.91903 0.65901 10.341C1.08097 10.7629 1.65326 11 2.25 11H11.75C12.3467 11 12.919 10.7629 13.341 10.341C13.7629 9.91903 14 9.34674 14 8.75V2.25C14 1.65326 13.7629 1.08097 13.341 0.65901C12.919 0.237053 12.3467 0 11.75 0H2.25ZM13 2.7015L7 5.932L1 2.7015V2.25C1 1.91848 1.1317 1.60054 1.36612 1.36612C1.60054 1.1317 1.91848 1 2.25 1H11.75C12.0815 1 12.3995 1.1317 12.6339 1.36612C12.8683 1.60054 13 1.91848 13 2.25V2.7015ZM1 3.837L6.763 6.9405C6.83584 6.97971 6.91727 7.00024 7 7.00024C7.08273 7.00024 7.16416 6.97971 7.237 6.9405L13 3.837V8.75C13 9.08152 12.8683 9.39946 12.6339 9.63388C12.3995 9.8683 12.0815 10 11.75 10H2.25C1.91848 10 1.60054 9.8683 1.36612 9.63388C1.1317 9.39946 1 9.08152 1 8.75V3.837Z" fill="#6B6B7E"/>
</svg>
