<svg width="24" height="24" viewBox="0 0 24 24" fill="none" xmlns="http://www.w3.org/2000/svg">
<path fill-rule="evenodd" clip-rule="evenodd" d="M8.68533 0.000179248C8.97303 0.00417494 9.25171 0.101125 9.47976 0.276552C9.70782 0.451979 9.87301 0.696469 9.95067 0.973513L14.848 18.3868L17.4187 11.5322C17.5139 11.2781 17.6844 11.0591 17.9074 10.9045C18.1304 10.7498 18.3953 10.6669 18.6667 10.6668H22.6667C23.0203 10.6668 23.3594 10.8073 23.6095 11.0574C23.8595 11.3074 24 11.6466 24 12.0002C24 12.3538 23.8595 12.6929 23.6095 12.943C23.3594 13.193 23.0203 13.3335 22.6667 13.3335H19.5907L15.9147 23.1348C15.816 23.398 15.6368 23.6233 15.4025 23.7785C15.1682 23.9337 14.8908 24.0109 14.61 23.9991C14.3292 23.9873 14.0593 23.887 13.8389 23.7126C13.6185 23.5383 13.4588 23.2987 13.3827 23.0282L8.6 6.01885L6.60533 12.3975C6.52068 12.6687 6.35163 12.9057 6.12282 13.0741C5.89401 13.2425 5.61741 13.3334 5.33333 13.3335H1.33333C0.979711 13.3335 0.640573 13.193 0.390524 12.943C0.140476 12.6929 0 12.3538 0 12.0002C0 11.6466 0.140476 11.3074 0.390524 11.0574C0.640573 10.8073 0.979711 10.6668 1.33333 10.6668H4.35333L7.39333 0.936179C7.47911 0.661275 7.65159 0.421531 7.88496 0.252809C8.11834 0.0840881 8.40006 -0.00454131 8.688 0.000179248H8.68533Z" fill="#0DAFC0"/>
</svg>
