<svg width="16" height="16" viewBox="0 0 16 16" fill="none" xmlns="http://www.w3.org/2000/svg">
<path fill-rule="evenodd" clip-rule="evenodd" d="M11.9905 3.61602C9.33831 3.32019 6.66142 3.32019 4.00919 3.61602C3.96853 3.62068 3.92987 3.63617 3.89724 3.66087C3.8646 3.68557 3.8392 3.71857 3.82367 3.75644C3.80814 3.79431 3.80306 3.83565 3.80896 3.87614C3.81486 3.91664 3.83151 3.95482 3.85719 3.98669L6.20186 6.88535C7.0417 7.92362 7.49988 9.21861 7.49986 10.554V12.48L8.49986 13.2134V10.5534C8.5 9.21817 8.95816 7.92344 9.79786 6.88535L12.1425 3.98669C12.1682 3.95482 12.1849 3.91664 12.1908 3.87614C12.1967 3.83565 12.1916 3.79431 12.1761 3.75644C12.1605 3.71857 12.1351 3.68557 12.1025 3.66087C12.0699 3.63617 12.0312 3.62068 11.9905 3.61602ZM3.89853 2.62202C6.62449 2.3174 9.3759 2.3174 12.1019 2.62202C13.0659 2.73002 13.5305 3.86069 12.9205 4.61535L10.5759 7.51402C9.87975 8.37429 9.49994 9.44739 9.49986 10.554V14.2C9.49993 14.2925 9.47436 14.3832 9.42598 14.462C9.37761 14.5408 9.30834 14.6046 9.22586 14.6464C9.14338 14.6882 9.05092 14.7063 8.95877 14.6987C8.86662 14.6911 8.77838 14.6581 8.70386 14.6034L6.70386 13.1367C6.64057 13.0902 6.58913 13.0295 6.55368 12.9594C6.51824 12.8893 6.4998 12.8119 6.49986 12.7334V10.5534C6.49986 9.44669 6.11986 8.37402 5.42453 7.51335L3.07986 4.61602C2.46919 3.86135 2.93319 2.73002 3.89853 2.62202Z" fill="#E8E8F0"/>
</svg>
