<svg width="16" height="16" viewBox="0 0 16 16" fill="none" xmlns="http://www.w3.org/2000/svg">
<path d="M1.83398 5.74886V10.6682C1.83398 11.3754 2.11494 12.0537 2.61503 12.5538C3.11513 13.0539 3.79341 13.3349 4.50065 13.3349H11.5007C12.2079 13.3349 12.8862 13.0539 13.3863 12.5538C13.8864 12.0537 14.1673 11.3754 14.1673 10.6682V6.87486C14.1673 6.16762 13.8864 5.48934 13.3863 4.98924C12.8862 4.48915 12.2079 4.20819 11.5007 4.20819H8.00065M1.83398 5.74886V4.66553C1.83398 4.13509 2.0447 3.62639 2.41977 3.25131C2.79484 2.87624 3.30355 2.66553 3.83398 2.66553H5.76732C5.9862 2.66549 6.20295 2.70856 6.40519 2.79229C6.60743 2.87602 6.79119 2.99877 6.94598 3.15353L8.00065 4.20886L6.94865 5.26086C6.79386 5.41562 6.61009 5.53836 6.40786 5.62209C6.20562 5.70583 5.98887 5.7489 5.76998 5.74886H1.83398Z" stroke="#A0A0B5" stroke-width="1.5" stroke-linejoin="round"/>
</svg>
