<svg width="13" height="13" viewBox="0 0 13 13" fill="none" xmlns="http://www.w3.org/2000/svg">
<mask id="path-1-inside-1_2061_2860" fill="white">
<path d="M4.42857 6.85714C4.76956 6.85714 5.09659 6.9926 5.33771 7.23372C5.57883 7.47484 5.71429 7.80186 5.71429 8.14286V11.2857C5.71429 11.6267 5.57883 11.9537 5.33771 12.1949C5.09659 12.436 4.76956 12.5714 4.42857 12.5714H1.28571C0.944722 12.5714 0.617695 12.436 0.376577 12.1949C0.135459 11.9537 0 11.6267 0 11.2857V8.14286C0 7.80186 0.135459 7.47484 0.376577 7.23372C0.617695 6.9926 0.944722 6.85714 1.28571 6.85714H4.42857ZM11.2857 6.85714C11.6267 6.85714 11.9537 6.9926 12.1949 7.23372C12.436 7.47484 12.5714 7.80186 12.5714 8.14286V11.2857C12.5714 11.6267 12.436 11.9537 12.1949 12.1949C11.9537 12.436 11.6267 12.5714 11.2857 12.5714H8.14286C7.80186 12.5714 7.47484 12.436 7.23372 12.1949C6.9926 11.9537 6.85714 11.6267 6.85714 11.2857V8.14286C6.85714 7.80186 6.9926 7.47484 7.23372 7.23372C7.47484 6.9926 7.80186 6.85714 8.14286 6.85714H11.2857ZM4.42857 7.71429H1.28571C1.17205 7.71429 1.06304 7.75944 0.982668 7.83981C0.902296 7.92018 0.857143 8.02919 0.857143 8.14286V11.2857C0.857143 11.5223 1.04914 11.7143 1.28571 11.7143H4.42857C4.54224 11.7143 4.65124 11.6691 4.73162 11.5888C4.81199 11.5084 4.85714 11.3994 4.85714 11.2857V8.14286C4.85714 8.02919 4.81199 7.92018 4.73162 7.83981C4.65124 7.75944 4.54224 7.71429 4.42857 7.71429ZM11.2857 7.71429H8.14286C8.02919 7.71429 7.92018 7.75944 7.83981 7.83981C7.75944 7.92018 7.71429 8.02919 7.71429 8.14286V11.2857C7.71429 11.5223 7.90629 11.7143 8.14286 11.7143H11.2857C11.3994 11.7143 11.5084 11.6691 11.5888 11.5888C11.6691 11.5084 11.7143 11.3994 11.7143 11.2857V8.14286C11.7143 8.02919 11.6691 7.92018 11.5888 7.83981C11.5084 7.75944 11.3994 7.71429 11.2857 7.71429ZM4.42857 0C4.76956 0 5.09659 0.135459 5.33771 0.376577C5.57883 0.617695 5.71429 0.944722 5.71429 1.28571V4.42857C5.71429 4.76956 5.57883 5.09659 5.33771 5.33771C5.09659 5.57883 4.76956 5.71429 4.42857 5.71429H1.28571C0.944722 5.71429 0.617695 5.57883 0.376577 5.33771C0.135459 5.09659 0 4.76956 0 4.42857V1.28571C0 0.944722 0.135459 0.617695 0.376577 0.376577C0.617695 0.135459 0.944722 0 1.28571 0H4.42857ZM11.2857 0C11.6267 0 11.9537 0.135459 12.1949 0.376577C12.436 0.617695 12.5714 0.944722 12.5714 1.28571V4.42857C12.5714 4.76956 12.436 5.09659 12.1949 5.33771C11.9537 5.57883 11.6267 5.71429 11.2857 5.71429H8.14286C7.80186 5.71429 7.47484 5.57883 7.23372 5.33771C6.9926 5.09659 6.85714 4.76956 6.85714 4.42857V1.28571C6.85714 0.944722 6.9926 0.617695 7.23372 0.376577C7.47484 0.135459 7.80186 0 8.14286 0H11.2857ZM4.42857 0.857143H1.28571C1.17205 0.857143 1.06304 0.902296 0.982668 0.982668C0.902296 1.06304 0.857143 1.17205 0.857143 1.28571V4.42857C0.857143 4.66514 1.04914 4.85714 1.28571 4.85714H4.42857C4.54224 4.85714 4.65124 4.81199 4.73162 4.73162C4.81199 4.65124 4.85714 4.54224 4.85714 4.42857V1.28571C4.85714 1.17205 4.81199 1.06304 4.73162 0.982668C4.65124 0.902296 4.54224 0.857143 4.42857 0.857143ZM11.2857 0.857143H8.14286C8.02919 0.857143 7.92018 0.902296 7.83981 0.982668C7.75944 1.06304 7.71429 1.17205 7.71429 1.28571V4.42857C7.71429 4.66514 7.90629 4.85714 8.14286 4.85714H11.2857C11.3994 4.85714 11.5084 4.81199 11.5888 4.73162C11.6691 4.65124 11.7143 4.54224 11.7143 4.42857V1.28571C11.7143 1.17205 11.6691 1.06304 11.5888 0.982668C11.5084 0.902296 11.3994 0.857143 11.2857 0.857143Z"/>
</mask>
<path d="M4.42857 6.85714C4.76956 6.85714 5.09659 6.9926 5.33771 7.23372C5.57883 7.47484 5.71429 7.80186 5.71429 8.14286V11.2857C5.71429 11.6267 5.57883 11.9537 5.33771 12.1949C5.09659 12.436 4.76956 12.5714 4.42857 12.5714H1.28571C0.944722 12.5714 0.617695 12.436 0.376577 12.1949C0.135459 11.9537 0 11.6267 0 11.2857V8.14286C0 7.80186 0.135459 7.47484 0.376577 7.23372C0.617695 6.9926 0.944722 6.85714 1.28571 6.85714H4.42857ZM11.2857 6.85714C11.6267 6.85714 11.9537 6.9926 12.1949 7.23372C12.436 7.47484 12.5714 7.80186 12.5714 8.14286V11.2857C12.5714 11.6267 12.436 11.9537 12.1949 12.1949C11.9537 12.436 11.6267 12.5714 11.2857 12.5714H8.14286C7.80186 12.5714 7.47484 12.436 7.23372 12.1949C6.9926 11.9537 6.85714 11.6267 6.85714 11.2857V8.14286C6.85714 7.80186 6.9926 7.47484 7.23372 7.23372C7.47484 6.9926 7.80186 6.85714 8.14286 6.85714H11.2857ZM4.42857 7.71429H1.28571C1.17205 7.71429 1.06304 7.75944 0.982668 7.83981C0.902296 7.92018 0.857143 8.02919 0.857143 8.14286V11.2857C0.857143 11.5223 1.04914 11.7143 1.28571 11.7143H4.42857C4.54224 11.7143 4.65124 11.6691 4.73162 11.5888C4.81199 11.5084 4.85714 11.3994 4.85714 11.2857V8.14286C4.85714 8.02919 4.81199 7.92018 4.73162 7.83981C4.65124 7.75944 4.54224 7.71429 4.42857 7.71429ZM11.2857 7.71429H8.14286C8.02919 7.71429 7.92018 7.75944 7.83981 7.83981C7.75944 7.92018 7.71429 8.02919 7.71429 8.14286V11.2857C7.71429 11.5223 7.90629 11.7143 8.14286 11.7143H11.2857C11.3994 11.7143 11.5084 11.6691 11.5888 11.5888C11.6691 11.5084 11.7143 11.3994 11.7143 11.2857V8.14286C11.7143 8.02919 11.6691 7.92018 11.5888 7.83981C11.5084 7.75944 11.3994 7.71429 11.2857 7.71429ZM4.42857 0C4.76956 0 5.09659 0.135459 5.33771 0.376577C5.57883 0.617695 5.71429 0.944722 5.71429 1.28571V4.42857C5.71429 4.76956 5.57883 5.09659 5.33771 5.33771C5.09659 5.57883 4.76956 5.71429 4.42857 5.71429H1.28571C0.944722 5.71429 0.617695 5.57883 0.376577 5.33771C0.135459 5.09659 0 4.76956 0 4.42857V1.28571C0 0.944722 0.135459 0.617695 0.376577 0.376577C0.617695 0.135459 0.944722 0 1.28571 0H4.42857ZM11.2857 0C11.6267 0 11.9537 0.135459 12.1949 0.376577C12.436 0.617695 12.5714 0.944722 12.5714 1.28571V4.42857C12.5714 4.76956 12.436 5.09659 12.1949 5.33771C11.9537 5.57883 11.6267 5.71429 11.2857 5.71429H8.14286C7.80186 5.71429 7.47484 5.57883 7.23372 5.33771C6.9926 5.09659 6.85714 4.76956 6.85714 4.42857V1.28571C6.85714 0.944722 6.9926 0.617695 7.23372 0.376577C7.47484 0.135459 7.80186 0 8.14286 0H11.2857ZM4.42857 0.857143H1.28571C1.17205 0.857143 1.06304 0.902296 0.982668 0.982668C0.902296 1.06304 0.857143 1.17205 0.857143 1.28571V4.42857C0.857143 4.66514 1.04914 4.85714 1.28571 4.85714H4.42857C4.54224 4.85714 4.65124 4.81199 4.73162 4.73162C4.81199 4.65124 4.85714 4.54224 4.85714 4.42857V1.28571C4.85714 1.17205 4.81199 1.06304 4.73162 0.982668C4.65124 0.902296 4.54224 0.857143 4.42857 0.857143ZM11.2857 0.857143H8.14286C8.02919 0.857143 7.92018 0.902296 7.83981 0.982668C7.75944 1.06304 7.71429 1.17205 7.71429 1.28571V4.42857C7.71429 4.66514 7.90629 4.85714 8.14286 4.85714H11.2857C11.3994 4.85714 11.5084 4.81199 11.5888 4.73162C11.6691 4.65124 11.7143 4.54224 11.7143 4.42857V1.28571C11.7143 1.17205 11.6691 1.06304 11.5888 0.982668C11.5084 0.902296 11.3994 0.857143 11.2857 0.857143Z" fill="#3A3A4A"/>
<path d="M0 11.2857H-1H0ZM0 8.14286H1H0ZM0.857143 8.14286H-0.142857H0.857143ZM0 4.42857H-1H0ZM0 1.28571H1H0ZM1.28571 0V-1V0ZM8.14286 0V-1V0ZM4.42857 0.857143V-0.142857V0.857143ZM1.28571 0.857143V-0.142857V0.857143ZM0.857143 1.28571H-0.142857H0.857143ZM11.2857 0.857143V-0.142857V0.857143ZM8.14286 0.857143V-0.142857V0.857143ZM4.42857 6.85714V7.85714C4.50435 7.85714 4.57702 7.88724 4.6306 7.94083L5.33771 7.23372L6.04482 6.52661C5.61616 6.09796 5.03478 5.85714 4.42857 5.85714V6.85714ZM5.33771 7.23372L4.6306 7.94083C4.68418 7.99441 4.71429 8.06708 4.71429 8.14286H5.71429H6.71429C6.71429 7.53665 6.47347 6.95527 6.04482 6.52661L5.33771 7.23372ZM5.71429 8.14286H4.71429V11.2857H5.71429H6.71429V8.14286H5.71429ZM5.71429 11.2857H4.71429C4.71429 11.3615 4.68418 11.4342 4.6306 11.4877L5.33771 12.1949L6.04482 12.902C6.47347 12.4733 6.71429 11.8919 6.71429 11.2857H5.71429ZM5.33771 12.1949L4.6306 11.4877C4.57702 11.5413 4.50435 11.5714 4.42857 11.5714V12.5714V13.5714C5.03478 13.5714 5.61616 13.3306 6.04482 12.902L5.33771 12.1949ZM4.42857 12.5714V11.5714H1.28571V12.5714V13.5714H4.42857V12.5714ZM1.28571 12.5714V11.5714C1.20994 11.5714 1.13727 11.5413 1.08368 11.4877L0.376577 12.1949L-0.33053 12.902C0.0981246 13.3306 0.679505 13.5714 1.28571 13.5714V12.5714ZM0.376577 12.1949L1.08368 11.4877C1.0301 11.4342 1 11.3615 1 11.2857H0H-1C-1 11.8919 -0.759184 12.4733 -0.33053 12.902L0.376577 12.1949ZM0 11.2857H1V8.14286H0H-1V11.2857H0ZM0 8.14286H1C1 8.06708 1.0301 7.99441 1.08368 7.94083L0.376577 7.23372L-0.33053 6.52661C-0.759184 6.95527 -1 7.53665 -1 8.14286H0ZM0.376577 7.23372L1.08368 7.94083C1.13727 7.88724 1.20994 7.85714 1.28571 7.85714V6.85714V5.85714C0.679505 5.85714 0.0981246 6.09796 -0.33053 6.52661L0.376577 7.23372ZM1.28571 6.85714V7.85714H4.42857V6.85714V5.85714H1.28571V6.85714ZM11.2857 6.85714V7.85714C11.3615 7.85714 11.4342 7.88724 11.4877 7.94083L12.1949 7.23372L12.902 6.52661C12.4733 6.09796 11.8919 5.85714 11.2857 5.85714V6.85714ZM12.1949 7.23372L11.4877 7.94083C11.5413 7.99441 11.5714 8.06708 11.5714 8.14286H12.5714H13.5714C13.5714 7.53665 13.3306 6.95527 12.902 6.52661L12.1949 7.23372ZM12.5714 8.14286H11.5714V11.2857H12.5714H13.5714V8.14286H12.5714ZM12.5714 11.2857H11.5714C11.5714 11.3615 11.5413 11.4342 11.4877 11.4877L12.1949 12.1949L12.902 12.902C13.3306 12.4733 13.5714 11.8919 13.5714 11.2857H12.5714ZM12.1949 12.1949L11.4877 11.4877C11.4342 11.5413 11.3615 11.5714 11.2857 11.5714V12.5714V13.5714C11.8919 13.5714 12.4733 13.3306 12.902 12.902L12.1949 12.1949ZM11.2857 12.5714V11.5714H8.14286V12.5714V13.5714H11.2857V12.5714ZM8.14286 12.5714V11.5714C8.06708 11.5714 7.99441 11.5413 7.94083 11.4877L7.23372 12.1949L6.52661 12.902C6.95527 13.3306 7.53665 13.5714 8.14286 13.5714V12.5714ZM7.23372 12.1949L7.94083 11.4877C7.88724 11.4342 7.85714 11.3615 7.85714 11.2857H6.85714H5.85714C5.85714 11.8919 6.09796 12.4733 6.52661 12.902L7.23372 12.1949ZM6.85714 11.2857H7.85714V8.14286H6.85714H5.85714V11.2857H6.85714ZM6.85714 8.14286H7.85714C7.85714 8.06708 7.88724 7.99441 7.94083 7.94083L7.23372 7.23372L6.52661 6.52661C6.09796 6.95527 5.85714 7.53665 5.85714 8.14286H6.85714ZM7.23372 7.23372L7.94083 7.94083C7.99441 7.88724 8.06708 7.85714 8.14286 7.85714V6.85714V5.85714C7.53665 5.85714 6.95527 6.09796 6.52661 6.52661L7.23372 7.23372ZM8.14286 6.85714V7.85714H11.2857V6.85714V5.85714H8.14286V6.85714ZM4.42857 7.71429V6.71429H1.28571V7.71429V8.71428H4.42857V7.71429ZM1.28571 7.71429V6.71429C0.906836 6.71429 0.543472 6.86479 0.275562 7.1327L0.982668 7.83981L1.68978 8.54692C1.58261 8.65408 1.43726 8.71428 1.28571 8.71428V7.71429ZM0.982668 7.83981L0.275562 7.1327C0.00765172 7.40061 -0.142857 7.76398 -0.142857 8.14286H0.857143H1.85714C1.85714 8.29441 1.79694 8.43975 1.68978 8.54692L0.982668 7.83981ZM0.857143 8.14286H-0.142857V11.2857H0.857143H1.85714V8.14286H0.857143ZM0.857143 11.2857H-0.142857C-0.142857 12.0746 0.496858 12.7143 1.28571 12.7143V11.7143V10.7143C1.60143 10.7143 1.85714 10.97 1.85714 11.2857H0.857143ZM1.28571 11.7143V12.7143H4.42857V11.7143V10.7143H1.28571V11.7143ZM4.42857 11.7143V12.7143C4.80745 12.7143 5.17081 12.5638 5.43872 12.2959L4.73162 11.5888L4.02451 10.8817C4.13167 10.7745 4.27702 10.7143 4.42857 10.7143V11.7143ZM4.73162 11.5888L5.43872 12.2959C5.70663 12.028 5.85714 11.6646 5.85714 11.2857H4.85714H3.85714C3.85714 11.1342 3.91735 10.9888 4.02451 10.8817L4.73162 11.5888ZM4.85714 11.2857H5.85714V8.14286H4.85714H3.85714V11.2857H4.85714ZM4.85714 8.14286H5.85714C5.85714 7.76398 5.70663 7.40061 5.43872 7.1327L4.73162 7.83981L4.02451 8.54692C3.91735 8.43975 3.85714 8.29441 3.85714 8.14286H4.85714ZM4.73162 7.83981L5.43872 7.1327C5.17081 6.86479 4.80745 6.71429 4.42857 6.71429V7.71429V8.71428C4.27702 8.71428 4.13167 8.65408 4.02451 8.54692L4.73162 7.83981ZM11.2857 7.71429V6.71429H8.14286V7.71429V8.71428H11.2857V7.71429ZM8.14286 7.71429V6.71429C7.76398 6.71429 7.40061 6.86479 7.1327 7.1327L7.83981 7.83981L8.54692 8.54692C8.43975 8.65408 8.29441 8.71428 8.14286 8.71428V7.71429ZM7.83981 7.83981L7.1327 7.1327C6.86479 7.40061 6.71429 7.76398 6.71429 8.14286H7.71429H8.71428C8.71428 8.29441 8.65408 8.43975 8.54692 8.54692L7.83981 7.83981ZM7.71429 8.14286H6.71429V11.2857H7.71429H8.71428V8.14286H7.71429ZM7.71429 11.2857H6.71429C6.71429 12.0746 7.354 12.7143 8.14286 12.7143V11.7143V10.7143C8.45857 10.7143 8.71428 10.97 8.71428 11.2857H7.71429ZM8.14286 11.7143V12.7143H11.2857V11.7143V10.7143H8.14286V11.7143ZM11.2857 11.7143V12.7143C11.6646 12.7143 12.028 12.5638 12.2959 12.2959L11.5888 11.5888L10.8817 10.8817C10.9888 10.7745 11.1342 10.7143 11.2857 10.7143V11.7143ZM11.5888 11.5888L12.2959 12.2959C12.5638 12.028 12.7143 11.6646 12.7143 11.2857H11.7143H10.7143C10.7143 11.1342 10.7745 10.9888 10.8817 10.8817L11.5888 11.5888ZM11.7143 11.2857H12.7143V8.14286H11.7143H10.7143V11.2857H11.7143ZM11.7143 8.14286H12.7143C12.7143 7.76398 12.5638 7.40061 12.2959 7.1327L11.5888 7.83981L10.8817 8.54692C10.7745 8.43975 10.7143 8.29441 10.7143 8.14286H11.7143ZM11.5888 7.83981L12.2959 7.1327C12.028 6.86479 11.6646 6.71429 11.2857 6.71429V7.71429V8.71428C11.1342 8.71428 10.9888 8.65408 10.8817 8.54692L11.5888 7.83981ZM4.42857 0V1C4.50435 1 4.57702 1.0301 4.6306 1.08368L5.33771 0.376577L6.04482 -0.33053C5.61616 -0.759184 5.03478 -1 4.42857 -1V0ZM5.33771 0.376577L4.6306 1.08368C4.68418 1.13727 4.71429 1.20994 4.71429 1.28571H5.71429H6.71429C6.71429 0.679505 6.47347 0.0981246 6.04482 -0.33053L5.33771 0.376577ZM5.71429 1.28571H4.71429V4.42857H5.71429H6.71429V1.28571H5.71429ZM5.71429 4.42857H4.71429C4.71429 4.50435 4.68418 4.57702 4.6306 4.6306L5.33771 5.33771L6.04482 6.04482C6.47347 5.61616 6.71429 5.03478 6.71429 4.42857H5.71429ZM5.33771 5.33771L4.6306 4.6306C4.57702 4.68418 4.50435 4.71429 4.42857 4.71429V5.71429V6.71429C5.03478 6.71429 5.61616 6.47347 6.04482 6.04482L5.33771 5.33771ZM4.42857 5.71429V4.71429H1.28571V5.71429V6.71429H4.42857V5.71429ZM1.28571 5.71429V4.71429C1.20994 4.71429 1.13727 4.68418 1.08368 4.6306L0.376577 5.33771L-0.33053 6.04482C0.0981246 6.47347 0.679505 6.71429 1.28571 6.71429V5.71429ZM0.376577 5.33771L1.08368 4.6306C1.0301 4.57702 1 4.50435 1 4.42857H0H-1C-1 5.03478 -0.759184 5.61616 -0.33053 6.04482L0.376577 5.33771ZM0 4.42857H1V1.28571H0H-1V4.42857H0ZM0 1.28571H1C1 1.20994 1.0301 1.13727 1.08368 1.08368L0.376577 0.376577L-0.33053 -0.33053C-0.759184 0.0981248 -1 0.679505 -1 1.28571L0 1.28571ZM0.376577 0.376577L1.08368 1.08368C1.13727 1.0301 1.20994 1 1.28571 1L1.28571 0V-1C0.679505 -1 0.0981248 -0.759184 -0.33053 -0.33053L0.376577 0.376577ZM1.28571 0V1H4.42857V0V-1H1.28571V0ZM11.2857 0V1C11.3615 1 11.4342 1.0301 11.4877 1.08368L12.1949 0.376577L12.902 -0.33053C12.4733 -0.759184 11.8919 -1 11.2857 -1V0ZM12.1949 0.376577L11.4877 1.08368C11.5413 1.13727 11.5714 1.20994 11.5714 1.28571H12.5714H13.5714C13.5714 0.679505 13.3306 0.0981246 12.902 -0.33053L12.1949 0.376577ZM12.5714 1.28571H11.5714V4.42857H12.5714H13.5714V1.28571H12.5714ZM12.5714 4.42857H11.5714C11.5714 4.50435 11.5413 4.57702 11.4877 4.6306L12.1949 5.33771L12.902 6.04482C13.3306 5.61616 13.5714 5.03478 13.5714 4.42857H12.5714ZM12.1949 5.33771L11.4877 4.6306C11.4342 4.68418 11.3615 4.71429 11.2857 4.71429V5.71429V6.71429C11.8919 6.71429 12.4733 6.47347 12.902 6.04482L12.1949 5.33771ZM11.2857 5.71429V4.71429H8.14286V5.71429V6.71429H11.2857V5.71429ZM8.14286 5.71429V4.71429C8.06708 4.71429 7.99441 4.68418 7.94083 4.6306L7.23372 5.33771L6.52661 6.04482C6.95527 6.47347 7.53665 6.71429 8.14286 6.71429V5.71429ZM7.23372 5.33771L7.94083 4.6306C7.88724 4.57702 7.85714 4.50435 7.85714 4.42857H6.85714H5.85714C5.85714 5.03478 6.09796 5.61616 6.52661 6.04482L7.23372 5.33771ZM6.85714 4.42857H7.85714V1.28571H6.85714H5.85714V4.42857H6.85714ZM6.85714 1.28571H7.85714C7.85714 1.20994 7.88724 1.13727 7.94083 1.08368L7.23372 0.376577L6.52661 -0.33053C6.09796 0.0981246 5.85714 0.679505 5.85714 1.28571H6.85714ZM7.23372 0.376577L7.94083 1.08368C7.99441 1.0301 8.06708 1 8.14286 1V0V-1C7.53665 -1 6.95527 -0.759184 6.52661 -0.33053L7.23372 0.376577ZM8.14286 0V1H11.2857V0V-1H8.14286V0ZM4.42857 0.857143V-0.142857H1.28571V0.857143V1.85714H4.42857V0.857143ZM1.28571 0.857143V-0.142857C0.906834 -0.142857 0.543471 0.0076522 0.275562 0.275562L0.982668 0.982668L1.68978 1.68978C1.58261 1.79694 1.43727 1.85714 1.28571 1.85714L1.28571 0.857143ZM0.982668 0.982668L0.275562 0.275562C0.0076522 0.543471 -0.142857 0.906834 -0.142857 1.28571H0.857143L1.85714 1.28571C1.85714 1.43727 1.79694 1.58261 1.68978 1.68978L0.982668 0.982668ZM0.857143 1.28571H-0.142857V4.42857H0.857143H1.85714V1.28571H0.857143ZM0.857143 4.42857H-0.142857C-0.142857 5.21743 0.496858 5.85714 1.28571 5.85714V4.85714V3.85714C1.60143 3.85714 1.85714 4.11286 1.85714 4.42857H0.857143ZM1.28571 4.85714V5.85714H4.42857V4.85714V3.85714H1.28571V4.85714ZM4.42857 4.85714V5.85714C4.80745 5.85714 5.17082 5.70663 5.43872 5.43872L4.73162 4.73162L4.02451 4.02451C4.13167 3.91735 4.27702 3.85714 4.42857 3.85714V4.85714ZM4.73162 4.73162L5.43872 5.43872C5.70663 5.17082 5.85714 4.80745 5.85714 4.42857H4.85714H3.85714C3.85714 4.27702 3.91735 4.13167 4.02451 4.02451L4.73162 4.73162ZM4.85714 4.42857H5.85714V1.28571H4.85714H3.85714V4.42857H4.85714ZM4.85714 1.28571H5.85714C5.85714 0.906832 5.70663 0.54347 5.43872 0.275562L4.73162 0.982668L4.02451 1.68978C3.91735 1.58261 3.85714 1.43727 3.85714 1.28571H4.85714ZM4.73162 0.982668L5.43872 0.275562C5.17081 0.00765267 4.80745 -0.142857 4.42857 -0.142857V0.857143V1.85714C4.27702 1.85714 4.13167 1.79694 4.02451 1.68978L4.73162 0.982668ZM11.2857 0.857143V-0.142857H8.14286V0.857143V1.85714H11.2857V0.857143ZM8.14286 0.857143V-0.142857C7.76398 -0.142857 7.40061 0.00765172 7.1327 0.275562L7.83981 0.982668L8.54692 1.68978C8.43975 1.79694 8.29441 1.85714 8.14286 1.85714V0.857143ZM7.83981 0.982668L7.1327 0.275562C6.86479 0.543472 6.71429 0.906836 6.71429 1.28571H7.71429H8.71428C8.71428 1.43726 8.65408 1.58261 8.54692 1.68978L7.83981 0.982668ZM7.71429 1.28571H6.71429V4.42857H7.71429H8.71428V1.28571H7.71429ZM7.71429 4.42857H6.71429C6.71429 5.21743 7.354 5.85714 8.14286 5.85714V4.85714V3.85714C8.45857 3.85714 8.71428 4.11286 8.71428 4.42857H7.71429ZM8.14286 4.85714V5.85714H11.2857V4.85714V3.85714H8.14286V4.85714ZM11.2857 4.85714V5.85714C11.6646 5.85714 12.028 5.70663 12.2959 5.43872L11.5888 4.73162L10.8817 4.02451C10.9888 3.91735 11.1342 3.85714 11.2857 3.85714V4.85714ZM11.5888 4.73162L12.2959 5.43872C12.5638 5.17081 12.7143 4.80745 12.7143 4.42857H11.7143H10.7143C10.7143 4.27702 10.7745 4.13167 10.8817 4.02451L11.5888 4.73162ZM11.7143 4.42857H12.7143V1.28571H11.7143H10.7143V4.42857H11.7143ZM11.7143 1.28571H12.7143C12.7143 0.906836 12.5638 0.543472 12.2959 0.275562L11.5888 0.982668L10.8817 1.68978C10.7745 1.58261 10.7143 1.43726 10.7143 1.28571H11.7143ZM11.5888 0.982668L12.2959 0.275562C12.028 0.00765172 11.6646 -0.142857 11.2857 -0.142857V0.857143V1.85714C11.1342 1.85714 10.9888 1.79694 10.8817 1.68978L11.5888 0.982668Z" fill="#3A3A4A" mask="url(#path-1-inside-1_2061_2860)"/>
</svg>
