<svg width="16" height="16" viewBox="0 0 16 16" fill="none" xmlns="http://www.w3.org/2000/svg">
<path d="M5.98998 13.7754H3.79665C2.98865 13.7754 2.33398 13.1207 2.33398 12.3127V8.01005C2.33448 7.6966 2.40194 7.38688 2.53187 7.10162C2.66179 6.81637 2.85117 6.56217 3.08732 6.35605L7.04065 2.91272C7.30686 2.68114 7.64781 2.55359 8.00065 2.55359C8.35349 2.55359 8.69444 2.68114 8.96065 2.91272L12.914 6.35672C13.1501 6.56276 13.3394 6.81685 13.4693 7.10199C13.5992 7.38712 13.6667 7.69672 13.6673 8.01005V12.3127C13.6673 12.7005 13.5133 13.0725 13.2391 13.3467C12.965 13.621 12.5931 13.7752 12.2053 13.7754H10.194V9.38805C10.194 8.78272 9.70332 8.29139 9.09732 8.29139H7.08732C6.48132 8.29139 5.99065 8.78272 5.99065 9.38805L5.98998 13.7754ZM5.98998 13.7754H10.1947" stroke="#A0A0B5" stroke-width="1.5" stroke-linejoin="round"/>
</svg>
