<svg width="20" height="20" viewBox="0 0 20 20" fill="none" xmlns="http://www.w3.org/2000/svg">
<mask id="path-1-inside-1_2001_6672" fill="white">
<path d="M9.64898 2.9165H12.0198C12.8198 2.9165 13.4473 2.9165 13.9498 2.95817C14.4623 2.99984 14.8832 3.08567 15.264 3.27984C15.8912 3.59941 16.4011 4.10932 16.7206 4.7365C16.9148 5.11734 17.0015 5.53817 17.0432 6.04984C17.084 6.554 17.084 7.17984 17.084 7.9815V10.3523C17.084 11.1523 17.084 11.7798 17.0423 12.2823C17.0007 12.7948 16.9148 13.2157 16.7206 13.5965C16.4011 14.2237 15.8912 14.7336 15.264 15.0532C14.8832 15.2473 14.4623 15.3332 13.9507 15.3757C13.4473 15.4165 12.8207 15.4165 12.0198 15.4165H9.64898C8.84815 15.4165 8.22148 15.4165 7.71815 15.3748C7.20565 15.3332 6.78482 15.2473 6.40398 15.0532C5.77681 14.7336 5.26689 14.2237 4.94732 13.5965C4.75315 13.2157 4.66732 12.7948 4.62482 12.2832C4.58398 11.7798 4.58398 11.1523 4.58398 10.3515V7.9815C4.58398 7.17984 4.58398 6.554 4.62565 6.04984C4.66732 5.53817 4.75315 5.1165 4.94732 4.7365C5.26689 4.10932 5.77681 3.59941 6.40398 3.27984C6.78482 3.08567 7.20565 2.99984 7.71815 2.95734C8.22148 2.9165 8.84815 2.9165 9.64898 2.9165ZM7.78565 3.78817C7.32482 3.82567 7.02565 3.89817 6.78232 4.02234C6.31193 4.26202 5.9295 4.64445 5.68982 5.11484C5.56565 5.35817 5.49315 5.65734 5.45565 6.11817C5.41732 6.58317 5.41732 7.1765 5.41732 7.99984V10.3332C5.41732 11.1565 5.41732 11.7498 5.45565 12.2148C5.49315 12.6757 5.56565 12.9748 5.68982 13.2182C5.9295 13.6886 6.31193 14.071 6.78232 14.3107C7.02565 14.4348 7.32482 14.5073 7.78565 14.5448C8.25065 14.5832 8.84398 14.5832 9.66732 14.5832H12.0007C12.824 14.5832 13.4173 14.5832 13.8823 14.5448C14.3432 14.5073 14.6423 14.4348 14.8857 14.3107C15.356 14.071 15.7385 13.6886 15.9782 13.2182C16.1023 12.9748 16.1748 12.6757 16.2123 12.2148C16.2507 11.7498 16.2507 11.1565 16.2507 10.3332V7.99984C16.2507 7.1765 16.2507 6.58317 16.2123 6.11817C16.1748 5.65734 16.1023 5.35817 15.9782 5.11484C15.7385 4.64445 15.356 4.26202 14.8857 4.02234C14.6423 3.89817 14.3432 3.82567 13.8823 3.78817C13.4173 3.74984 12.824 3.74984 12.0007 3.74984H9.66732C8.84398 3.74984 8.25065 3.74984 7.78565 3.78817Z"/>
</mask>
<path d="M9.64898 2.9165H12.0198C12.8198 2.9165 13.4473 2.9165 13.9498 2.95817C14.4623 2.99984 14.8832 3.08567 15.264 3.27984C15.8912 3.59941 16.4011 4.10932 16.7206 4.7365C16.9148 5.11734 17.0015 5.53817 17.0432 6.04984C17.084 6.554 17.084 7.17984 17.084 7.9815V10.3523C17.084 11.1523 17.084 11.7798 17.0423 12.2823C17.0007 12.7948 16.9148 13.2157 16.7206 13.5965C16.4011 14.2237 15.8912 14.7336 15.264 15.0532C14.8832 15.2473 14.4623 15.3332 13.9507 15.3757C13.4473 15.4165 12.8207 15.4165 12.0198 15.4165H9.64898C8.84815 15.4165 8.22148 15.4165 7.71815 15.3748C7.20565 15.3332 6.78482 15.2473 6.40398 15.0532C5.77681 14.7336 5.26689 14.2237 4.94732 13.5965C4.75315 13.2157 4.66732 12.7948 4.62482 12.2832C4.58398 11.7798 4.58398 11.1523 4.58398 10.3515V7.9815C4.58398 7.17984 4.58398 6.554 4.62565 6.04984C4.66732 5.53817 4.75315 5.1165 4.94732 4.7365C5.26689 4.10932 5.77681 3.59941 6.40398 3.27984C6.78482 3.08567 7.20565 2.99984 7.71815 2.95734C8.22148 2.9165 8.84815 2.9165 9.64898 2.9165ZM7.78565 3.78817C7.32482 3.82567 7.02565 3.89817 6.78232 4.02234C6.31193 4.26202 5.9295 4.64445 5.68982 5.11484C5.56565 5.35817 5.49315 5.65734 5.45565 6.11817C5.41732 6.58317 5.41732 7.1765 5.41732 7.99984V10.3332C5.41732 11.1565 5.41732 11.7498 5.45565 12.2148C5.49315 12.6757 5.56565 12.9748 5.68982 13.2182C5.9295 13.6886 6.31193 14.071 6.78232 14.3107C7.02565 14.4348 7.32482 14.5073 7.78565 14.5448C8.25065 14.5832 8.84398 14.5832 9.66732 14.5832H12.0007C12.824 14.5832 13.4173 14.5832 13.8823 14.5448C14.3432 14.5073 14.6423 14.4348 14.8857 14.3107C15.356 14.071 15.7385 13.6886 15.9782 13.2182C16.1023 12.9748 16.1748 12.6757 16.2123 12.2148C16.2507 11.7498 16.2507 11.1565 16.2507 10.3332V7.99984C16.2507 7.1765 16.2507 6.58317 16.2123 6.11817C16.1748 5.65734 16.1023 5.35817 15.9782 5.11484C15.7385 4.64445 15.356 4.26202 14.8857 4.02234C14.6423 3.89817 14.3432 3.82567 13.8823 3.78817C13.4173 3.74984 12.824 3.74984 12.0007 3.74984H9.66732C8.84398 3.74984 8.25065 3.74984 7.78565 3.78817Z" fill="#1FCBDA"/>
<path d="M13.9498 2.95817L13.7845 4.95133L13.7878 4.95159L13.9498 2.95817ZM15.264 3.27984L14.3555 5.06162L14.356 5.06184L15.264 3.27984ZM16.7206 4.7365L14.9386 5.64451L14.9389 5.64494L16.7206 4.7365ZM17.0432 6.04984L19.0366 5.88838L19.0366 5.88751L17.0432 6.04984ZM17.0423 12.2823L15.0492 12.1171L15.0489 12.1203L17.0423 12.2823ZM16.7206 13.5965L14.9389 12.6881L14.9386 12.6885L16.7206 13.5965ZM15.264 15.0532L14.356 13.2712L14.3555 13.2714L15.264 15.0532ZM13.9507 15.3757L14.1124 17.3691L14.1162 17.3688L13.9507 15.3757ZM7.71815 15.3748L7.88315 13.3817L7.88022 13.3814L7.71815 15.3748ZM6.40398 15.0532L7.31242 13.2714L7.31199 13.2712L6.40398 15.0532ZM4.94732 13.5965L6.72932 12.6885L6.7291 12.6881L4.94732 13.5965ZM4.62482 12.2832L2.63136 12.4449L2.63168 12.4487L4.62482 12.2832ZM4.62565 6.04984L6.61886 6.21457L6.61905 6.21217L4.62565 6.04984ZM4.94732 4.7365L6.72829 5.64652L6.72932 5.64451L4.94732 4.7365ZM6.40398 3.27984L7.31199 5.06184L7.31242 5.06162L6.40398 3.27984ZM7.71815 2.95734L7.55643 0.963883L7.55286 0.964179L7.71815 2.95734ZM7.78565 3.78817L7.94786 5.78158L7.94997 5.78141L7.78565 3.78817ZM6.78232 4.02234L7.69032 5.80434L7.69136 5.80381L6.78232 4.02234ZM5.68982 5.11484L7.47129 6.02388L7.47182 6.02284L5.68982 5.11484ZM5.45565 6.11817L7.44889 6.28249L7.44906 6.28038L5.45565 6.11817ZM5.45565 12.2148L7.44906 12.0526L7.44889 12.0505L5.45565 12.2148ZM5.68982 13.2182L7.47182 12.3102L7.47129 12.3091L5.68982 13.2182ZM6.78232 14.3107L7.69136 12.5292L7.69032 12.5287L6.78232 14.3107ZM7.78565 14.5448L7.94997 12.5516L7.94786 12.5514L7.78565 14.5448ZM13.8823 14.5448L13.7201 12.5514L13.718 12.5516L13.8823 14.5448ZM14.8857 14.3107L13.9776 12.5287L13.9766 12.5292L14.8857 14.3107ZM15.9782 13.2182L14.1967 12.3091L14.1961 12.3102L15.9782 13.2182ZM16.2123 12.2148L14.2191 12.0505L14.2189 12.0526L16.2123 12.2148ZM16.2123 6.11817L14.2189 6.28038L14.2191 6.28249L16.2123 6.11817ZM15.9782 5.11484L14.1961 6.02284L14.1967 6.02388L15.9782 5.11484ZM14.8857 4.02234L13.9766 5.80381L13.9776 5.80434L14.8857 4.02234ZM13.8823 3.78817L13.718 5.78141L13.7201 5.78158L13.8823 3.78817ZM9.64898 2.9165V4.9165H12.0198V2.9165V0.916504H9.64898V2.9165ZM12.0198 2.9165V4.9165C12.8518 4.9165 13.3835 4.91808 13.7845 4.95133L13.9498 2.95817L14.1151 0.965011C13.5111 0.914932 12.7878 0.916504 12.0198 0.916504V2.9165ZM13.9498 2.95817L13.7878 4.95159C14.1778 4.98331 14.305 5.03585 14.3555 5.06162L15.264 3.27984L16.1724 1.49806C15.4613 1.13549 14.7468 1.01637 14.1119 0.964748L13.9498 2.95817ZM15.264 3.27984L14.356 5.06184C14.6069 5.18967 14.8108 5.39363 14.9386 5.64451L16.7206 4.7365L18.5027 3.8285C17.9913 2.82502 17.1755 2.00915 16.172 1.49784L15.264 3.27984ZM16.7206 4.7365L14.9389 5.64494C14.9656 5.69735 15.0183 5.82598 15.0497 6.21217L17.0432 6.04984L19.0366 5.88751C18.9847 5.25036 18.864 4.53732 18.5024 3.82807L16.7206 4.7365ZM17.0432 6.04984L15.0497 6.21129C15.0825 6.61639 15.084 7.14877 15.084 7.9815H17.084H19.084C19.084 7.2109 19.0855 6.49162 19.0366 5.88838L17.0432 6.04984ZM17.084 7.9815H15.084V10.3523H17.084H19.084V7.9815H17.084ZM17.084 10.3523H15.084C15.084 11.1844 15.0824 11.716 15.0492 12.1171L17.0423 12.2823L19.0355 12.4476C19.0856 11.8436 19.084 11.1203 19.084 10.3523H17.084ZM17.0423 12.2823L15.0489 12.1203C15.0172 12.5104 14.9646 12.6375 14.9389 12.6881L16.7206 13.5965L18.5024 14.5049C18.865 13.7938 18.9841 13.0793 19.0357 12.4444L17.0423 12.2823ZM16.7206 13.5965L14.9386 12.6885C14.8108 12.9394 14.6069 13.1433 14.356 13.2712L15.264 15.0532L16.172 16.8352C17.1755 16.3239 17.9913 15.508 18.5027 14.5045L16.7206 13.5965ZM15.264 15.0532L14.3555 13.2714C14.3045 13.2974 14.1766 13.35 13.7851 13.3825L13.9507 15.3757L14.1162 17.3688C14.748 17.3163 15.4618 17.1972 16.1724 16.835L15.264 15.0532ZM13.9507 15.3757L13.7889 13.3822C13.3849 13.415 12.8519 13.4165 12.0198 13.4165V15.4165V17.4165C12.7894 17.4165 13.5098 17.418 14.1124 17.3691L13.9507 15.3757ZM12.0198 15.4165V13.4165H9.64898V15.4165V17.4165H12.0198V15.4165ZM9.64898 15.4165V13.4165C8.81629 13.4165 8.28522 13.4149 7.88315 13.3817L7.71815 15.3748L7.55315 17.368C8.15775 17.4181 8.88001 17.4165 9.64898 17.4165V15.4165ZM7.71815 15.3748L7.88022 13.3814C7.49013 13.3497 7.36297 13.2972 7.31242 13.2714L6.40398 15.0532L5.49555 16.835C6.20666 17.1975 6.92117 17.3166 7.55608 17.3683L7.71815 15.3748ZM6.40398 15.0532L7.31199 13.2712C7.06111 13.1433 6.85715 12.9394 6.72932 12.6885L4.94732 13.5965L3.16532 14.5045C3.67663 15.508 4.4925 16.3239 5.49598 16.8352L6.40398 15.0532ZM4.94732 13.5965L6.7291 12.6881C6.70305 12.637 6.65048 12.5092 6.61795 12.1176L4.62482 12.2832L2.63168 12.4487C2.68416 13.0805 2.80325 13.7944 3.16554 14.5049L4.94732 13.5965ZM4.62482 12.2832L6.61827 12.1214C6.58549 11.7174 6.58398 11.1836 6.58398 10.3515H4.58398H2.58398C2.58398 11.1211 2.58248 11.8423 2.63137 12.4449L4.62482 12.2832ZM4.58398 10.3515H6.58398V7.9815H4.58398H2.58398V10.3515H4.58398ZM4.58398 7.9815H6.58398C6.58398 7.14815 6.58554 6.61766 6.61886 6.21457L4.62565 6.04984L2.63245 5.88511C2.58243 6.49035 2.58398 7.21153 2.58398 7.9815H4.58398ZM4.62565 6.04984L6.61905 6.21217C6.65085 5.82173 6.70355 5.69495 6.72829 5.64652L4.94732 4.7365L3.16634 3.82649C2.80276 4.53806 2.68379 5.25461 2.63225 5.88751L4.62565 6.04984ZM4.94732 4.7365L6.72932 5.64451C6.85715 5.39363 7.06111 5.18967 7.31199 5.06184L6.40398 3.27984L5.49598 1.49784C4.4925 2.00915 3.67663 2.82502 3.16532 3.8285L4.94732 4.7365ZM6.40398 3.27984L7.31242 5.06162C7.36335 5.03565 7.49103 4.98304 7.88344 4.9505L7.71815 2.95734L7.55286 0.964179C6.92027 1.01664 6.20628 1.13569 5.49555 1.49806L6.40398 3.27984ZM7.71815 2.95734L7.87987 4.95079C8.28395 4.91801 8.81692 4.9165 9.64898 4.9165V2.9165V0.916504C8.87938 0.916504 8.15902 0.915 7.55643 0.963886L7.71815 2.95734ZM7.78565 3.78817L7.62344 1.79476C7.03889 1.84233 6.44638 1.94843 5.87328 2.24086L6.78232 4.02234L7.69136 5.80381C7.60492 5.84792 7.61075 5.80901 7.94786 5.78158L7.78565 3.78817ZM6.78232 4.02234L5.87432 2.24034C5.02762 2.67176 4.33924 3.36014 3.90782 4.20684L5.68982 5.11484L7.47182 6.02284C7.51976 5.92876 7.59624 5.85228 7.69032 5.80434L6.78232 4.02234ZM5.68982 5.11484L3.90834 4.2058C3.61591 4.7789 3.50981 5.37141 3.46224 5.95596L5.45565 6.11817L7.44906 6.28038C7.47649 5.94327 7.5154 5.93744 7.47129 6.02388L5.68982 5.11484ZM5.45565 6.11817L3.46241 5.95385C3.4157 6.52045 3.41732 7.2114 3.41732 7.99984H5.41732H7.41732C7.41732 7.14161 7.41893 6.64589 7.44889 6.28249L5.45565 6.11817ZM5.41732 7.99984H3.41732V10.3332H5.41732H7.41732V7.99984H5.41732ZM5.41732 10.3332H3.41732C3.41732 11.1216 3.4157 11.8126 3.46241 12.3792L5.45565 12.2148L7.44889 12.0505C7.41893 11.6871 7.41732 11.1914 7.41732 10.3332H5.41732ZM5.45565 12.2148L3.46224 12.377C3.50981 12.9616 3.61591 13.5541 3.90834 14.1272L5.68982 13.2182L7.47129 12.3091C7.5154 12.3956 7.47649 12.3897 7.44906 12.0526L5.45565 12.2148ZM5.68982 13.2182L3.90782 14.1262C4.33924 14.9729 5.02762 15.6612 5.87432 16.0927L6.78232 14.3107L7.69032 12.5287C7.59624 12.4807 7.51976 12.4042 7.47182 12.3102L5.68982 13.2182ZM6.78232 14.3107L5.87328 16.0921C6.44638 16.3846 7.03889 16.4907 7.62344 16.5382L7.78565 14.5448L7.94786 12.5514C7.61075 12.524 7.60492 12.4851 7.69136 12.5292L6.78232 14.3107ZM7.78565 14.5448L7.62133 16.5381C8.18794 16.5848 8.87888 16.5832 9.66732 16.5832V14.5832V12.5832C8.80909 12.5832 8.31337 12.5816 7.94997 12.5516L7.78565 14.5448ZM9.66732 14.5832V16.5832H12.0007V14.5832V12.5832H9.66732V14.5832ZM12.0007 14.5832V16.5832C12.7891 16.5832 13.48 16.5848 14.0466 16.5381L13.8823 14.5448L13.718 12.5516C13.3546 12.5816 12.8589 12.5832 12.0007 12.5832V14.5832ZM13.8823 14.5448L14.0445 16.5382C14.6291 16.4907 15.2216 16.3846 15.7947 16.0921L14.8857 14.3107L13.9766 12.5292C14.063 12.4851 14.0572 12.524 13.7201 12.5514L13.8823 14.5448ZM14.8857 14.3107L15.7937 16.0927C16.6403 15.6613 17.3287 14.9729 17.7602 14.1262L15.9782 13.2182L14.1961 12.3102C14.1482 12.4042 14.0717 12.4807 13.9776 12.5287L14.8857 14.3107ZM15.9782 13.2182L17.7596 14.1272C18.0521 13.5541 18.1582 12.9616 18.2057 12.377L16.2123 12.2148L14.2189 12.0526C14.1915 12.3897 14.1526 12.3956 14.1967 12.3091L15.9782 13.2182ZM16.2123 12.2148L18.2056 12.3792C18.2523 11.8126 18.2507 11.1216 18.2507 10.3332H16.2507H14.2507C14.2507 11.1914 14.249 11.6871 14.2191 12.0505L16.2123 12.2148ZM16.2507 10.3332H18.2507V7.99984H16.2507H14.2507V10.3332H16.2507ZM16.2507 7.99984H18.2507C18.2507 7.2114 18.2523 6.52045 18.2056 5.95385L16.2123 6.11817L14.2191 6.28249C14.249 6.64589 14.2507 7.14161 14.2507 7.99984H16.2507ZM16.2123 6.11817L18.2057 5.95596C18.1582 5.37141 18.0521 4.7789 17.7596 4.2058L15.9782 5.11484L14.1967 6.02388C14.1526 5.93744 14.1915 5.94327 14.2189 6.28038L16.2123 6.11817ZM15.9782 5.11484L17.7602 4.20684C17.3287 3.36014 16.6403 2.67176 15.7937 2.24034L14.8857 4.02234L13.9776 5.80434C14.0717 5.85228 14.1482 5.92876 14.1961 6.02284L15.9782 5.11484ZM14.8857 4.02234L15.7947 2.24086C15.2216 1.94843 14.6291 1.84233 14.0445 1.79476L13.8823 3.78817L13.7201 5.78158C14.0572 5.80901 14.063 5.84792 13.9766 5.80381L14.8857 4.02234ZM13.8823 3.78817L14.0466 1.79493C13.48 1.74822 12.7891 1.74984 12.0007 1.74984V3.74984V5.74984C12.8589 5.74984 13.3546 5.75145 13.718 5.78141L13.8823 3.78817ZM12.0007 3.74984V1.74984H9.66732V3.74984V5.74984H12.0007V3.74984ZM9.66732 3.74984V1.74984C8.87888 1.74984 8.18793 1.74822 7.62133 1.79493L7.78565 3.78817L7.94997 5.78141C8.31337 5.75145 8.80909 5.74984 9.66732 5.74984V3.74984Z" fill="#1FCBDA" mask="url(#path-1-inside-1_2001_6672)"/>
<path d="M9.58268 6.24984C9.36167 6.24984 9.14971 6.33763 8.99343 6.49392C8.83715 6.6502 8.74935 6.86216 8.74935 7.08317C8.74935 7.30418 8.83715 7.51615 8.99343 7.67243C9.14971 7.82871 9.36167 7.9165 9.58268 7.9165C9.8037 7.9165 10.0157 7.82871 10.1719 7.67243C10.3282 7.51615 10.416 7.30418 10.416 7.08317C10.416 6.86216 10.3282 6.6502 10.1719 6.49392C10.0157 6.33763 9.8037 6.24984 9.58268 6.24984ZM7.91602 7.08317C7.91602 6.64114 8.09161 6.21722 8.40417 5.90466C8.71673 5.5921 9.14065 5.4165 9.58268 5.4165C10.0247 5.4165 10.4486 5.5921 10.7612 5.90466C11.0738 6.21722 11.2493 6.64114 11.2493 7.08317C11.2493 7.5252 11.0738 7.94912 10.7612 8.26168C10.4486 8.57424 10.0247 8.74984 9.58268 8.74984C9.14065 8.74984 8.71673 8.57424 8.40417 8.26168C8.09161 7.94912 7.91602 7.5252 7.91602 7.08317Z" fill="#1FCBDA"/>
<path d="M5.59852 5.04146C5.61808 5.09267 5.62734 5.14723 5.62577 5.20203C5.62421 5.25682 5.61185 5.31077 5.5894 5.36078C5.56695 5.41079 5.53485 5.45587 5.49495 5.49346C5.45504 5.53104 5.40811 5.56038 5.35685 5.57979C4.88375 5.7606 4.47673 6.08084 4.18967 6.49811C3.90262 6.91538 3.74906 7.40999 3.74935 7.91646V10.8331C3.74935 12.4165 3.75435 13.1098 3.93268 13.6581C4.11553 14.2212 4.42907 14.7329 4.84766 15.1515C5.26625 15.5701 5.77799 15.8836 6.34102 16.0665C6.88935 16.2448 7.58268 16.2498 9.16602 16.2498H12.0827C12.5839 16.2499 13.0735 16.0995 13.4881 15.8179C13.9027 15.5363 14.2231 15.1366 14.4077 14.6706C14.4279 14.6197 14.4579 14.5733 14.496 14.534C14.5341 14.4948 14.5796 14.4634 14.6299 14.4417C14.6802 14.4199 14.7342 14.4084 14.7889 14.4075C14.8437 14.4067 14.898 14.4167 14.9489 14.4369C14.9998 14.4571 15.0462 14.4871 15.0855 14.5252C15.1248 14.5633 15.1562 14.6088 15.1779 14.6591C15.1996 14.7093 15.2112 14.7634 15.212 14.8181C15.2128 14.8729 15.2029 14.9272 15.1827 14.9781C14.9365 15.5993 14.5092 16.1321 13.9565 16.5075C13.4037 16.8828 12.7509 17.0834 12.0827 17.0831H9.06852C7.61018 17.0831 6.77435 17.0831 6.08268 16.8581C5.39508 16.6346 4.77013 16.2515 4.25887 15.7403C3.74761 15.229 3.36456 14.6041 3.14102 13.9165C2.91602 13.2248 2.91602 12.389 2.91602 10.9306V7.91646C2.91581 7.24116 3.12072 6.58173 3.50361 6.02547C3.88651 5.46921 4.42932 5.04237 5.06018 4.80146C5.11134 4.78188 5.16585 4.77258 5.22061 4.77408C5.27537 4.77559 5.32929 4.78788 5.37929 4.81025C5.42929 4.83262 5.47439 4.86463 5.512 4.90444C5.54962 4.94426 5.57902 4.99027 5.59852 5.04146Z" fill="#1FCBDA"/>
<path d="M13.1041 8.00752C13.4864 7.88617 13.8969 7.88617 14.2791 8.00752C14.5225 8.08502 14.7291 8.22168 14.9391 8.39752C15.1416 8.56668 15.3725 8.79418 15.6541 9.07418L16.6316 10.04L16.6541 10.0617C16.7541 10.16 16.8483 10.2534 16.9183 10.3659C16.98 10.4642 17.0258 10.5734 17.0533 10.6867C17.085 10.8167 17.0841 10.9484 17.0833 11.0834V11.1134C17.0783 12.2759 17.0508 13.0467 16.7166 13.6734C16.3886 14.282 15.8764 14.7712 15.2533 15.0709C14.8741 15.255 14.4541 15.3375 13.9425 15.3775C13.4391 15.4167 12.8116 15.4167 12.0083 15.4167H9.63329C8.83079 15.4167 8.20328 15.4167 7.69995 15.3775C7.18828 15.3375 6.76828 15.255 6.38912 15.0709C5.76605 14.7712 5.25382 14.282 4.92578 13.6734C4.72328 13.2925 4.63662 12.8709 4.59578 12.3567L4.59412 12.3317C4.57982 12.2093 4.58066 12.0856 4.59662 11.9634C4.61495 11.8525 4.65495 11.7342 4.70662 11.6342C4.76828 11.5175 4.85245 11.42 4.93995 11.32L4.95912 11.2984L5.01745 11.2317C5.31495 10.8909 5.55662 10.615 5.76995 10.4092C5.98995 10.1984 6.20995 10.0317 6.47662 9.93835C6.89026 9.79425 7.34048 9.79425 7.75412 9.93835C8.02079 10.0317 8.24079 10.1984 8.45995 10.4092C8.67412 10.615 8.91495 10.8909 9.21328 11.2317L9.22578 11.2467C9.2446 11.2668 9.2672 11.2829 9.29229 11.2942C9.31738 11.3055 9.34446 11.3117 9.37196 11.3125C9.39947 11.3133 9.42686 11.3086 9.45254 11.2987C9.47823 11.2889 9.50171 11.274 9.52162 11.255L11.73 9.07418C12.0125 8.79418 12.2425 8.56668 12.445 8.39752C12.6541 8.22252 12.8616 8.08502 13.1041 8.00752ZM14.0275 8.80169C13.8092 8.73239 13.5749 8.73239 13.3566 8.80169C13.2591 8.83252 13.1483 8.89502 12.98 9.03668C12.8066 9.18085 12.6008 9.38419 12.3025 9.67835L10.1075 11.8484C10.0065 11.9473 9.8865 12.0247 9.7547 12.0758C9.6229 12.1269 9.48208 12.1506 9.34082 12.1456C9.19955 12.1405 9.0608 12.1067 8.933 12.0463C8.8052 11.9859 8.69103 11.9001 8.59745 11.7942C8.28412 11.4359 8.06662 11.1875 7.88245 11.01C7.70162 10.8359 7.58245 10.7617 7.47995 10.7259C7.24385 10.6436 6.98688 10.6436 6.75078 10.7259C6.64745 10.7617 6.52912 10.8359 6.34745 11.01C6.16412 11.1875 5.94578 11.435 5.63245 11.7942L5.58745 11.8467C5.46912 11.9825 5.45495 12.0017 5.44578 12.0217C5.43374 12.0463 5.42478 12.0724 5.41912 12.0992C5.41578 12.1184 5.41412 12.135 5.42662 12.2909C5.46328 12.7534 5.53495 13.045 5.66162 13.2809C5.89912 13.7259 6.27995 14.0909 6.75328 14.3217C6.99912 14.4409 7.30162 14.5109 7.76412 14.5467C8.23162 14.5834 8.82662 14.5834 9.65162 14.5834H11.9908C12.8158 14.5834 13.41 14.5834 13.8775 14.5467C14.3408 14.5109 14.6433 14.4409 14.8891 14.3217C15.3539 14.0984 15.736 13.7338 15.9808 13.28C16.2 12.8709 16.245 12.325 16.25 11.11C16.25 10.925 16.2475 10.9017 16.2433 10.8834C16.2369 10.8559 16.2259 10.8297 16.2108 10.8059C16.1991 10.7875 16.1816 10.7667 16.0458 10.6325L15.0816 9.67918C14.8639 9.45666 14.6379 9.24234 14.4041 9.03668C14.235 8.89502 14.125 8.83252 14.0275 8.80169Z" fill="#1FCBDA"/>
</svg>
