<svg width="16" height="16" viewBox="0 0 16 16" fill="none" xmlns="http://www.w3.org/2000/svg">
<g clip-path="url(#clip0_2061_1839)">
<path d="M8.00029 9.60003C8.14174 9.60003 8.2774 9.65622 8.37742 9.75624C8.47744 9.85626 8.53363 9.99192 8.53363 10.1334V13.455L9.52776 12.4608C9.61786 12.3707 9.74007 12.3201 9.86749 12.3201C9.99492 12.3201 10.1171 12.3707 10.2072 12.4608C10.2973 12.5509 10.3479 12.6731 10.3479 12.8006C10.3479 12.928 10.2973 13.0502 10.2072 13.1403L8.34056 15.007C8.26225 15.0853 8.15925 15.1342 8.04901 15.1453C7.93877 15.1564 7.8281 15.129 7.73576 15.0678L7.66109 15.007L5.79443 13.1403L5.73256 13.0656C5.67042 12.9733 5.64227 12.8623 5.65294 12.7515C5.66361 12.6408 5.71243 12.5372 5.79105 12.4584C5.86967 12.3797 5.9732 12.3307 6.08394 12.3199C6.19469 12.309 6.30576 12.337 6.39816 12.399L6.47283 12.4608L7.46696 13.4539V10.1334C7.46696 9.99192 7.52315 9.85626 7.62317 9.75624C7.72319 9.65622 7.85884 9.60003 8.00029 9.60003ZM12.4611 5.79417C12.5392 5.71589 12.6419 5.66698 12.7519 5.65571C12.8619 5.64444 12.9725 5.67149 13.0648 5.7323L13.1395 5.79417L15.0062 7.66083L15.068 7.7355C15.1292 7.82784 15.1566 7.93851 15.1456 8.04875C15.1345 8.15899 15.0856 8.26199 15.0072 8.3403L13.1406 10.207C13.0505 10.2971 12.9283 10.3477 12.8008 10.3477C12.6734 10.3477 12.5512 10.2971 12.4611 10.207C12.371 10.1169 12.3204 9.99466 12.3204 9.86723C12.3204 9.73981 12.371 9.6176 12.4611 9.5275L13.4542 8.53337H10.1336C9.99218 8.53337 9.85652 8.47718 9.7565 8.37716C9.65648 8.27714 9.60029 8.14148 9.60029 8.00003C9.60029 7.85858 9.65648 7.72293 9.7565 7.62291C9.85652 7.52289 9.99218 7.4667 10.1336 7.4667H13.4542L12.4611 6.47363L12.3992 6.39897C12.3381 6.30651 12.3109 6.19576 12.3222 6.08552C12.3335 5.97528 12.3826 5.87234 12.4611 5.79417ZM2.86109 5.79417C2.9512 5.70406 3.0734 5.65344 3.20083 5.65344C3.32825 5.65344 3.45046 5.70406 3.54056 5.79417C3.63066 5.88427 3.68128 6.00647 3.68128 6.1339C3.68128 6.26132 3.63066 6.38353 3.54056 6.47363L2.54643 7.4667H5.86696L5.97363 7.47737C6.09419 7.50185 6.20258 7.56726 6.28044 7.66251C6.3583 7.75777 6.40083 7.87701 6.40083 8.00003C6.40083 8.12306 6.3583 8.2423 6.28044 8.33755C6.20258 8.43281 6.09419 8.49822 5.97363 8.5227L5.86696 8.53337H2.54643L3.54056 9.5275L3.60136 9.60217C3.66287 9.69449 3.6905 9.80527 3.67955 9.91567C3.6686 10.0261 3.61975 10.1293 3.54131 10.2077C3.46286 10.2862 3.35966 10.335 3.24927 10.346C3.13887 10.3569 3.02809 10.3293 2.93576 10.2678L2.86109 10.207L0.994427 8.3403C0.949758 8.29572 0.91432 8.24276 0.890141 8.18446C0.865961 8.12617 0.853516 8.06368 0.853516 8.00057C0.853516 7.93746 0.865961 7.87496 0.890141 7.81667C0.91432 7.75837 0.949758 7.70542 0.994427 7.66083L2.86109 5.79417ZM7.73576 0.932299C7.82822 0.871213 7.93896 0.843999 8.0492 0.855276C8.15944 0.866552 8.26238 0.915625 8.34056 0.994166L10.2072 2.86083L10.268 2.9355C10.3295 3.02783 10.3572 3.13861 10.3462 3.24901C10.3353 3.3594 10.2864 3.4626 10.208 3.54105C10.1295 3.61949 10.0263 3.66834 9.91593 3.67929C9.80553 3.69024 9.69475 3.66261 9.60243 3.6011L9.52776 3.5403L8.53363 2.54617V5.8667L8.52296 5.97337C8.49848 6.09393 8.43307 6.20232 8.33781 6.28018C8.24256 6.35804 8.12332 6.40057 8.00029 6.40057C7.87727 6.40057 7.75803 6.35804 7.66277 6.28018C7.56752 6.20232 7.50211 6.09393 7.47763 5.97337L7.46696 5.8667V2.54617L6.47389 3.5403C6.38379 3.6304 6.26158 3.68102 6.13416 3.68102C6.00674 3.68102 5.88453 3.6304 5.79443 3.5403C5.70432 3.4502 5.6537 3.32799 5.6537 3.20057C5.6537 3.07314 5.70432 2.95094 5.79443 2.86083L7.66109 0.994166L7.73576 0.932299Z" fill="white"/>
</g>
<defs>
<clipPath id="clip0_2061_1839">
<rect width="16" height="16" fill="white"/>
</clipPath>
</defs>
</svg>
