<svg width="18" height="15" viewBox="0 0 18 15" fill="none" xmlns="http://www.w3.org/2000/svg">
<path d="M0.823245 15C0.670467 15 0.531579 14.9619 0.406579 14.8858C0.281579 14.8097 0.184356 14.7089 0.114912 14.5833C0.0454675 14.4578 0.00741201 14.3222 0.000745342 14.1767C-0.00592132 14.0311 0.0321342 13.8889 0.114912 13.75L7.82325 0.416667C7.90658 0.277778 8.01436 0.173611 8.14658 0.104167C8.2788 0.0347222 8.41408 0 8.55241 0C8.69075 0 8.8263 0.0347222 8.95908 0.104167C9.09186 0.173611 9.19936 0.277778 9.28158 0.416667L16.9899 13.75C17.0732 13.8889 17.1116 14.0314 17.1049 14.1775C17.0982 14.3236 17.0599 14.4589 16.9899 14.5833C16.9199 14.7078 16.8227 14.8086 16.6982 14.8858C16.5738 14.9631 16.4349 15.0011 16.2816 15H0.823245ZM2.26075 13.3333H14.8441L8.55241 2.5L2.26075 13.3333ZM9.14658 12.2608C9.30602 12.1008 9.38575 11.9028 9.38575 11.6667C9.38575 11.4306 9.30575 11.2328 9.14575 11.0733C8.98575 10.9139 8.78797 10.8339 8.55241 10.8333C8.31686 10.8328 8.11908 10.9128 7.95908 11.0733C7.79908 11.2339 7.71908 11.4317 7.71908 11.6667C7.71908 11.9017 7.79908 12.0997 7.95908 12.2608C8.11908 12.4219 8.31686 12.5017 8.55241 12.5C8.78797 12.4983 8.98602 12.4192 9.14658 12.2608ZM9.14658 9.76C9.30602 9.60056 9.38575 9.40278 9.38575 9.16667V6.66667C9.38575 6.43056 9.30575 6.23278 9.14575 6.07333C8.98575 5.91389 8.78797 5.83389 8.55241 5.83333C8.31686 5.83278 8.11908 5.91278 7.95908 6.07333C7.79908 6.23389 7.71908 6.43167 7.71908 6.66667V9.16667C7.71908 9.40278 7.79908 9.60083 7.95908 9.76083C8.11908 9.92083 8.31686 10.0006 8.55241 10C8.78797 9.99944 8.98602 9.91944 9.14658 9.76Z" fill="#F9BC1C"/>
</svg>
