<svg width="20" height="22" viewBox="0 0 20 22" fill="none" xmlns="http://www.w3.org/2000/svg">
<path d="M10.4003 0.8V2.0332C11.8651 2.18297 13.2335 2.83325 14.2747 3.8744L14.5259 4.1256C15.726 5.32578 16.4003 6.95353 16.4003 8.6508V9.8264C16.4003 11.9864 17.2583 14.0584 18.7863 15.5864C18.984 15.7842 19.1186 16.0361 19.1731 16.3104C19.2276 16.5846 19.1996 16.8689 19.0925 17.1272C18.9855 17.3856 18.8043 17.6064 18.5718 17.7617C18.3393 17.9171 18.0659 18 17.7863 18H1.4143C1.1346 18.0001 0.861155 17.9172 0.628568 17.7618C0.395982 17.6064 0.2147 17.3856 0.107652 17.1272C0.00060513 16.8687 -0.0273979 16.5844 0.0271866 16.3101C0.0817711 16.0357 0.21649 15.7838 0.414303 15.586C1.17082 14.8297 1.77092 13.9317 2.18032 12.9434C2.58971 11.955 2.80039 10.8958 2.8003 9.826V8.6508C2.80035 6.95353 3.47458 5.32578 4.6747 4.1256L4.9259 3.8744C5.96711 2.83325 7.33549 2.18297 8.8003 2.0332V0.8C8.8003 0.587827 8.88459 0.384344 9.03462 0.234315C9.18465 0.0842856 9.38813 0 9.6003 0C9.81248 0 10.016 0.0842856 10.166 0.234315C10.316 0.384344 10.4003 0.587827 10.4003 0.8ZM6.8291 19.2C6.8291 19.935 7.12107 20.6398 7.64077 21.1595C8.16047 21.6792 8.86534 21.9712 9.6003 21.9712C10.3353 21.9712 11.0401 21.6792 11.5598 21.1595C12.0795 20.6398 12.3715 19.935 12.3715 19.2H6.8291Z" fill="#A0A0B5"/>
</svg>
