<svg width="9" height="9" viewBox="0 0 9 9" fill="none" xmlns="http://www.w3.org/2000/svg">
<path d="M5.68585 4.46479C6.09434 4.1434 6.39251 3.70267 6.53886 3.20393C6.68522 2.70519 6.67248 2.17323 6.50242 1.68207C6.33237 1.1909 6.01345 0.764953 5.59004 0.46348C5.16663 0.162006 4.65979 0 4.14001 0C3.62024 0 3.11339 0.162006 2.68998 0.46348C2.26657 0.764953 1.94766 1.1909 1.7776 1.68207C1.60755 2.17323 1.59481 2.70519 1.74116 3.20393C1.88752 3.70267 2.18568 4.1434 2.59418 4.46479C1.89421 4.74522 1.28347 5.21035 0.827052 5.81059C0.370637 6.41082 0.0856645 7.12367 0.00251327 7.87312C-0.00350565 7.92784 0.00131182 7.98321 0.0166905 8.03606C0.0320692 8.08892 0.057708 8.13823 0.0921431 8.18118C0.161688 8.26791 0.26284 8.32347 0.373347 8.33562C0.483854 8.34778 0.594663 8.31554 0.681399 8.24599C0.768134 8.17645 0.823691 8.0753 0.835847 7.96479C0.92734 7.15029 1.31572 6.39805 1.92677 5.85179C2.53783 5.30553 3.32872 5.00355 4.14835 5.00355C4.96797 5.00355 5.75887 5.30553 6.36992 5.85179C6.98098 6.39805 7.36935 7.15029 7.46085 7.96479C7.47218 8.06717 7.52103 8.16173 7.59797 8.23021C7.67492 8.2987 7.77451 8.33625 7.87751 8.33562H7.92335C8.03257 8.32306 8.1324 8.26783 8.20108 8.18198C8.26976 8.09613 8.30173 7.98661 8.29001 7.87729C8.20647 7.12571 7.91996 6.41103 7.4612 5.80988C7.00244 5.20872 6.38873 4.74374 5.68585 4.46479ZM4.14001 4.16896C3.81038 4.16896 3.48815 4.07121 3.21406 3.88807C2.93998 3.70494 2.72636 3.44464 2.60021 3.1401C2.47407 2.83555 2.44106 2.50044 2.50537 2.17714C2.56968 1.85384 2.72841 1.55687 2.9615 1.32378C3.19459 1.09069 3.49156 0.931957 3.81486 0.867648C4.13816 0.803339 4.47328 0.836345 4.77782 0.962491C5.08236 1.08864 5.34266 1.30226 5.5258 1.57634C5.70893 1.85042 5.80668 2.17265 5.80668 2.50229C5.80668 2.94432 5.63109 3.36824 5.31853 3.6808C5.00596 3.99336 4.58204 4.16896 4.14001 4.16896Z" fill="#80A8FF"/>
</svg>
