<svg width="20" height="20" viewBox="0 0 20 20" fill="none" xmlns="http://www.w3.org/2000/svg">
<path d="M6.49284 17.7082H13.5062C14.2797 17.7082 15.0216 17.4009 15.5686 16.8539C16.1155 16.3069 16.4228 15.5651 16.4228 14.7915V10.1832C16.4231 9.40972 16.1162 8.66783 15.5695 8.12067L10.5953 3.14567C10.3245 2.87484 10.0029 2.66001 9.64904 2.51345C9.29516 2.36689 8.91587 2.29148 8.53284 2.2915H6.49284C5.71929 2.2915 4.97742 2.59879 4.43044 3.14578C3.88346 3.69276 3.57617 4.43462 3.57617 5.20817V14.7915C3.57617 15.5651 3.88346 16.3069 4.43044 16.8539C4.97742 17.4009 5.71929 17.7082 6.49284 17.7082Z" stroke="#E8263D" stroke-linecap="round" stroke-linejoin="round"/>
<path fill-rule="evenodd" clip-rule="evenodd" d="M8.697 5.95079C8.49783 6.01579 8.37033 6.14746 8.33366 6.29329C8.25866 6.58663 8.33366 6.90163 8.5445 7.29579C8.6495 7.49079 8.77783 7.68829 8.9195 7.89996L8.99616 8.01413L9.117 8.19329L9.13283 8.13663L9.2045 7.88163C9.28672 7.60218 9.35061 7.31885 9.39616 7.03163C9.47033 6.49663 9.387 6.18329 9.13866 5.98163C9.072 5.92746 8.907 5.88246 8.697 5.95079ZM8.74283 9.41079L8.51783 9.10913L8.49116 9.06913C8.39533 8.91079 8.28866 8.75246 8.17283 8.58163L8.0895 8.45746C7.93616 8.23452 7.79377 8.00425 7.66283 7.76746C7.4045 7.28579 7.19783 6.69579 7.3645 6.04496C7.50616 5.49163 7.94616 5.14413 8.387 4.99996C8.81783 4.85996 9.36533 4.87746 9.77033 5.20579C10.4303 5.74246 10.477 6.51663 10.3862 7.16996C10.3356 7.50056 10.2629 7.8274 10.1687 8.14829L10.0887 8.43163C10.0264 8.64385 9.96866 8.85746 9.91533 9.07246L9.8595 9.23413L11.0195 10.7875C11.5612 10.7225 12.1562 10.6833 12.7112 10.7233C13.352 10.7683 14.0403 10.925 14.5095 11.37C14.6605 11.5266 14.7697 11.7186 14.8272 11.9284C14.8847 12.1382 14.8886 12.3591 14.8387 12.5708C14.7412 12.9708 14.4603 13.3041 14.0728 13.5066C13.252 13.9358 12.4878 13.5941 11.9203 13.16C11.4762 12.8208 11.0495 12.3475 10.6903 11.9491L10.6037 11.8541C10.2953 11.9016 10.0037 11.955 9.767 12C9.51283 12.0475 9.197 12.1066 8.85366 12.1833L8.72783 12.5525C8.65838 12.7125 8.59227 12.8736 8.5295 13.0358L8.42783 13.2883C8.32523 13.5483 8.20639 13.8016 8.072 14.0466C7.797 14.5283 7.35783 15.04 6.62116 15.0808C5.6345 15.1358 4.96616 14.26 5.15783 13.3241L5.16283 13.3016C5.3295 12.6425 5.90783 12.21 6.467 11.9241C6.9645 11.6691 7.54533 11.4808 8.0845 11.34L8.74283 9.41079ZM9.46783 10.3816L9.22866 11.0841L9.5795 11.0175L9.58283 11.0166L9.8995 10.9583L9.46783 10.3816ZM11.8345 11.7183C12.0628 11.96 12.2903 12.185 12.527 12.3658C12.9853 12.7158 13.3103 12.7766 13.6095 12.62C13.7762 12.5325 13.8462 12.4191 13.867 12.335C13.8771 12.2898 13.8763 12.2429 13.8647 12.1982C13.8531 12.1534 13.8311 12.112 13.8003 12.0775C13.5862 11.8875 13.1987 11.7608 12.6403 11.7208C12.372 11.7037 12.1029 11.7029 11.8345 11.7183ZM7.66366 12.5075C7.39866 12.5983 7.147 12.6991 6.922 12.8141C6.43283 13.0641 6.197 13.3175 6.13533 13.5366C6.07033 13.8825 6.29533 14.0975 6.56533 14.0825C6.79033 14.07 6.987 13.9291 7.20366 13.55C7.317 13.3433 7.41644 13.1302 7.502 12.9108L7.59116 12.6891L7.66366 12.5075Z" fill="#E8263D"/>
</svg>
