<svg width="10" height="10" viewBox="0 0 10 10" fill="none" xmlns="http://www.w3.org/2000/svg">
<g clip-path="url(#clip0_2078_5558)">
<path d="M5.00098 1.23389C7.07741 1.23406 8.76758 2.92401 8.76758 5.00049C8.7674 7.07682 7.07731 8.76691 5.00098 8.76709C2.9245 8.76709 1.23455 7.07693 1.23438 5.00049C1.23438 2.9239 2.92439 1.23389 5.00098 1.23389ZM5.00098 1.26709C2.94215 1.26709 1.26758 2.94166 1.26758 5.00049C1.26775 7.05917 2.94225 8.73389 5.00098 8.73389C7.05955 8.73371 8.7342 7.05906 8.73438 5.00049C8.73438 2.94177 7.05966 1.26727 5.00098 1.26709Z" fill="#D4A017" stroke="#D4A017" stroke-width="0.8"/>
<path d="M5.41732 2.9165H4.58398V5.17234L5.95607 6.54442L6.54523 5.95525L5.41732 4.82734V2.9165Z" fill="#D4A017"/>
</g>
<defs>
<clipPath id="clip0_2078_5558">
<rect width="10" height="10" fill="white"/>
</clipPath>
</defs>
</svg>
