<svg width="9" height="11" viewBox="0 0 9 11" fill="none" xmlns="http://www.w3.org/2000/svg">
<path fill-rule="evenodd" clip-rule="evenodd" d="M6.5 6C7.14423 6.00004 7.76358 6.24877 8.22889 6.69433C8.6942 7.13989 8.96954 7.74788 8.9975 8.3915L9 8.5V9C9.00008 9.25229 8.9048 9.49528 8.73325 9.68027C8.56171 9.86526 8.32658 9.97858 8.075 9.9975L8 10H1C0.747712 10.0001 0.504717 9.9048 0.319726 9.73325C0.134735 9.56171 0.0214217 9.32658 0.00250006 9.075L0 9V8.5C3.72212e-05 7.85577 0.248771 7.23642 0.69433 6.77111C1.13989 6.3058 1.74788 6.03046 2.3915 6.0025L2.5 6H6.5ZM6.5 7H2.5C2.11739 6.99998 1.74924 7.14616 1.47087 7.40864C1.1925 7.67112 1.02495 8.03005 1.0025 8.412L1 8.5V9H8V8.5C8.00002 8.11739 7.85384 7.74924 7.59136 7.47087C7.32888 7.1925 6.96995 7.02495 6.588 7.0025L6.5 7ZM4.5 0C5.16304 0 5.79893 0.263392 6.26777 0.732233C6.73661 1.20107 7 1.83696 7 2.5C7 3.16304 6.73661 3.79893 6.26777 4.26777C5.79893 4.73661 5.16304 5 4.5 5C3.83696 5 3.20107 4.73661 2.73223 4.26777C2.26339 3.79893 2 3.16304 2 2.5C2 1.83696 2.26339 1.20107 2.73223 0.732233C3.20107 0.263392 3.83696 0 4.5 0ZM4.5 1C4.30302 1 4.10796 1.0388 3.92597 1.11418C3.74399 1.18956 3.57863 1.30005 3.43934 1.43934C3.30005 1.57863 3.18956 1.74399 3.11418 1.92597C3.0388 2.10796 3 2.30302 3 2.5C3 2.69698 3.0388 2.89204 3.11418 3.07403C3.18956 3.25601 3.30005 3.42137 3.43934 3.56066C3.57863 3.69995 3.74399 3.81044 3.92597 3.88582C4.10796 3.9612 4.30302 4 4.5 4C4.89782 4 5.27936 3.84196 5.56066 3.56066C5.84196 3.27936 6 2.89782 6 2.5C6 2.10218 5.84196 1.72064 5.56066 1.43934C5.27936 1.15804 4.89782 1 4.5 1Z" fill="#B8B8C4"/>
</svg>
