<svg width="15" height="13" viewBox="0 0 15 13" fill="none" xmlns="http://www.w3.org/2000/svg">
<path d="M9.61304 6.4087H10.5743V8.21595L12.1381 9.11957L11.6574 9.9527L9.61304 8.7735V6.4087ZM10.2539 5.12696C9.40407 5.12696 8.58903 5.46456 7.9881 6.06549C7.38717 6.66642 7.04957 7.48146 7.04957 8.3313C7.04957 9.18115 7.38717 9.99619 7.9881 10.5971C8.58903 11.1981 9.40407 11.5357 10.2539 11.5357C11.1038 11.5357 11.9188 11.1981 12.5197 10.5971C13.1207 9.99619 13.4583 9.18115 13.4583 8.3313C13.4583 7.48146 13.1207 6.66642 12.5197 6.06549C11.9188 5.46456 11.1038 5.12696 10.2539 5.12696ZM10.2539 3.84522C11.4437 3.84522 12.5848 4.31786 13.4261 5.15916C14.2674 6.00047 14.74 7.14152 14.74 8.3313C14.74 9.52109 14.2674 10.6621 13.4261 11.5034C12.5848 12.3448 11.4437 12.8174 10.2539 12.8174C8.46589 12.8174 6.92139 11.7664 6.19721 10.2539H0V8.3313C0 6.62659 3.41583 5.76783 5.12696 5.76783C5.51148 5.76783 5.98572 5.81269 6.4856 5.896C6.892 5.2662 7.44993 4.74845 8.10829 4.39016C8.76664 4.03187 9.50438 3.8445 10.2539 3.84522ZM5.76783 8.3313C5.76783 7.8827 5.83191 7.4469 5.95368 7.04957C5.68451 7.0047 5.40253 6.98548 5.12696 6.98548C3.22357 6.98548 1.21765 7.92115 1.21765 8.3313V9.03626H5.8255C5.78775 8.80316 5.76847 8.56744 5.76783 8.3313ZM5.12696 0C5.80683 0 6.45886 0.27008 6.93961 0.750825C7.42035 1.23157 7.69043 1.8836 7.69043 2.56348C7.69043 3.24336 7.42035 3.89539 6.93961 4.37613C6.45886 4.85688 5.80683 5.12696 5.12696 5.12696C4.44708 5.12696 3.79505 4.85688 3.3143 4.37613C2.83356 3.89539 2.56348 3.24336 2.56348 2.56348C2.56348 1.8836 2.83356 1.23157 3.3143 0.750825C3.79505 0.27008 4.44708 0 5.12696 0ZM5.12696 1.21765C4.77002 1.21765 4.4277 1.35944 4.17531 1.61184C3.92292 1.86423 3.78113 2.20654 3.78113 2.56348C3.78113 2.92041 3.92292 3.26273 4.17531 3.51512C4.4277 3.76751 4.77002 3.9093 5.12696 3.9093C5.48389 3.9093 5.82621 3.76751 6.0786 3.51512C6.33099 3.26273 6.47278 2.92041 6.47278 2.56348C6.47278 2.20654 6.33099 1.86423 6.0786 1.61184C5.82621 1.35944 5.48389 1.21765 5.12696 1.21765Z" fill="#A0A0B5"/>
</svg>
