<svg width="13" height="13" viewBox="0 0 13 13" fill="none" xmlns="http://www.w3.org/2000/svg">
<path d="M4.69872 7.51923H3.57051C2.82247 7.51923 2.10506 7.81639 1.57611 8.34534C1.04716 8.87429 0.75 9.5917 0.75 10.3397V10.9038H4.72692M9.21154 8.50754V9.21154L9.77564 9.77564M8.08333 3.28846C8.08333 3.9617 7.81589 4.60737 7.33984 5.08343C6.86378 5.55948 6.21811 5.82692 5.54487 5.82692C4.87163 5.82692 4.22596 5.55948 3.74991 5.08343C3.27386 4.60737 3.00641 3.9617 3.00641 3.28846C3.00641 2.61522 3.27386 1.96955 3.74991 1.4935C4.22596 1.01744 4.87163 0.75 5.54487 0.75C6.21811 0.75 6.86378 1.01744 7.33984 1.4935C7.81589 1.96955 8.08333 2.61522 8.08333 3.28846ZM9.21154 11.75C8.5383 11.75 7.89263 11.4826 7.41658 11.0065C6.94052 10.5304 6.67308 9.88478 6.67308 9.21154C6.67308 8.5383 6.94052 7.89263 7.41658 7.41658C7.89263 6.94052 8.5383 6.67308 9.21154 6.67308C9.88478 6.67308 10.5304 6.94052 11.0065 7.41658C11.4826 7.89263 11.75 8.5383 11.75 9.21154C11.75 9.88478 11.4826 10.5304 11.0065 11.0065C10.5304 11.4826 9.88478 11.75 9.21154 11.75Z" stroke="white" stroke-width="1.5" stroke-linecap="square"/>
</svg>
