<svg width="15" height="15" viewBox="0 0 15 15" fill="none" xmlns="http://www.w3.org/2000/svg">
<path d="M10.4167 9.16667H9.75834L9.525 8.94167C10.37 7.96173 10.8343 6.71059 10.8333 5.41667C10.8333 4.34535 10.5157 3.2981 9.92046 2.40733C9.32527 1.51656 8.4793 0.822296 7.48954 0.412322C6.49977 0.00234696 5.41066 -0.104921 4.35993 0.104082C3.3092 0.313085 2.34404 0.828973 1.58651 1.58651C0.828973 2.34404 0.313085 3.3092 0.104082 4.35993C-0.104921 5.41066 0.00234696 6.49977 0.412322 7.48954C0.822296 8.4793 1.51656 9.32527 2.40733 9.92046C3.2981 10.5157 4.34535 10.8333 5.41667 10.8333C6.75834 10.8333 7.99167 10.3417 8.94167 9.525L9.16667 9.75834V10.4167L13.3333 14.575L14.575 13.3333L10.4167 9.16667ZM5.41667 9.16667C3.34167 9.16667 1.66667 7.49167 1.66667 5.41667C1.66667 3.34167 3.34167 1.66667 5.41667 1.66667C7.49167 1.66667 9.16667 3.34167 9.16667 5.41667C9.16667 7.49167 7.49167 9.16667 5.41667 9.16667Z" fill="#A0A0B5"/>
</svg>
