<svg width="14" height="14" viewBox="0 0 14 14" fill="none" xmlns="http://www.w3.org/2000/svg">
<path d="M7.32311 1.08355C7.26641 0.982386 7.18377 0.898155 7.0837 0.839529C6.98364 0.780903 6.86975 0.75 6.75378 0.75C6.6378 0.75 6.52392 0.780903 6.42386 0.839529C6.32379 0.898155 6.24115 0.982386 6.18445 1.08355C6.05111 1.32622 5.92289 1.572 5.79978 1.82089C5.41191 2.60819 5.08214 3.42281 4.81311 4.25822C4.72045 4.54555 4.44578 4.74489 4.13111 4.75355C3.17726 4.77863 2.22651 4.87333 1.28645 5.03689C0.770446 5.12755 0.576446 5.71555 0.943113 6.07422C1.02667 6.15644 1.11111 6.23755 1.19645 6.31755C1.83449 6.92012 2.5091 7.48275 3.21645 8.00222C3.46111 8.18155 3.56178 8.48889 3.46845 8.77022C3.11291 9.83892 2.85846 10.9386 2.70845 12.0549C2.64178 12.5582 3.18045 12.9136 3.64845 12.6736C4.57647 12.1977 5.46389 11.6465 6.30178 11.0256C6.43302 10.9298 6.5913 10.8781 6.75378 10.8781C6.91626 10.8781 7.07454 10.9298 7.20578 11.0256C8.04349 11.6468 8.93094 12.198 9.85911 12.6736C10.3264 12.9136 10.8658 12.5582 10.7991 12.0549C10.7733 11.866 10.7451 11.6782 10.7144 11.4916C10.5604 10.5683 10.3346 9.65839 10.0391 8.77022C9.94578 8.48889 10.0458 8.18155 10.2911 8.00222C11.0936 7.41421 11.8533 6.76992 12.5644 6.07422C12.9311 5.71555 12.7378 5.12755 12.2211 5.03689C11.2812 4.87237 10.3304 4.77767 9.37645 4.75355C9.22563 4.75115 9.07921 4.7023 8.95717 4.61366C8.83512 4.52502 8.74338 4.4009 8.69445 4.25822C8.34024 3.15867 7.88101 2.0951 7.32311 1.08355Z" stroke="#A0A0B5" stroke-width="1.5" stroke-linecap="round" stroke-linejoin="round"/>
</svg>
