<svg width="16" height="16" viewBox="0 0 16 16" fill="none" xmlns="http://www.w3.org/2000/svg">
<path d="M8.00065 1.3335C4.32465 1.3335 1.33398 4.32416 1.33398 8.00016C1.33398 11.6762 4.32465 14.6668 8.00065 14.6668C11.6767 14.6668 14.6673 11.6762 14.6673 8.00016C14.6673 4.32416 11.6767 1.3335 8.00065 1.3335ZM8.00065 13.3335C5.05998 13.3335 2.66732 10.9408 2.66732 8.00016C2.66732 5.0595 5.05998 2.66683 8.00065 2.66683C10.9413 2.66683 13.334 5.0595 13.334 8.00016C13.334 10.9408 10.9413 13.3335 8.00065 13.3335Z" fill="#A0A0B5"/>
<path d="M8.66732 4.6665H7.33398V8.27584L9.52932 10.4712L10.472 9.5285L8.66732 7.72384V4.6665Z" fill="#A0A0B5"/>
</svg>
