<svg width="12" height="14" viewBox="0 0 12 14" fill="none" xmlns="http://www.w3.org/2000/svg">
<path d="M9.75 4.75L9.19 10.3487C9.10533 11.1973 9.06333 11.6213 8.87 11.942C8.70044 12.2243 8.45106 12.45 8.15333 12.5907C7.81533 12.75 7.39 12.75 6.53667 12.75H4.96333C4.11067 12.75 3.68467 12.75 3.34667 12.59C3.0487 12.4494 2.79908 12.2237 2.62933 11.9413C2.43733 11.6213 2.39467 11.1973 2.30933 10.3487L1.75 4.75M6.75 9.08333V5.75M4.75 9.08333V5.75M0.75 3.08333H3.82667M3.82667 3.08333L4.084 1.302C4.15867 0.978 4.428 0.75 4.73733 0.75H6.76267C7.072 0.75 7.34067 0.978 7.416 1.302L7.67333 3.08333M3.82667 3.08333H7.67333M7.67333 3.08333H10.75" stroke="#A0A0B5" stroke-width="1.5" stroke-linecap="round" stroke-linejoin="round"/>
</svg>
