<svg width="10" height="11" viewBox="0 0 10 11" fill="none" xmlns="http://www.w3.org/2000/svg">
<path d="M5.49247 2.18623C5.58622 2.27986 5.7133 2.33245 5.84581 2.33245C5.97831 2.33245 6.10539 2.27986 6.19914 2.18623L6.67914 1.70623V8.49956C6.67914 8.63217 6.73182 8.75935 6.82559 8.85311C6.91935 8.94688 7.04653 8.99956 7.17914 8.99956C7.31175 8.99956 7.43892 8.94688 7.53269 8.85311C7.62646 8.75935 7.67914 8.63217 7.67914 8.49956V1.70623L8.15914 2.18623C8.20491 2.23535 8.26011 2.27475 8.32145 2.30208C8.38278 2.32941 8.44899 2.3441 8.51612 2.34529C8.58326 2.34647 8.64994 2.33412 8.7122 2.30898C8.77446 2.28383 8.83102 2.2464 8.8785 2.19892C8.92598 2.15144 8.96341 2.09488 8.98855 2.03263C9.0137 1.97037 9.02605 1.90368 9.02487 1.83654C9.02368 1.76941 9.00899 1.7032 8.98166 1.64187C8.95433 1.58053 8.91493 1.52533 8.86581 1.47956L7.53247 0.146227C7.43872 0.0525929 7.31164 0 7.17914 0C7.04664 0 6.91956 0.0525929 6.82581 0.146227L5.49247 1.47956C5.39884 1.57331 5.34625 1.70039 5.34625 1.83289C5.34625 1.96539 5.39884 2.09248 5.49247 2.18623ZM2.34581 8.62623L2.82581 8.14623C2.87158 8.0971 2.92678 8.0577 2.98811 8.03037C3.04945 8.00304 3.11566 7.98835 3.18279 7.98717C3.24993 7.98598 3.31661 7.99833 3.37887 8.02348C3.44113 8.04863 3.49768 8.08606 3.54516 8.13353C3.59264 8.18101 3.63007 8.23757 3.65522 8.29983C3.68037 8.36209 3.69272 8.42877 3.69153 8.49591C3.69035 8.56304 3.67565 8.62925 3.64833 8.69059C3.621 8.75192 3.5816 8.80712 3.53247 8.85289L2.19914 10.1862C2.10539 10.2799 1.97831 10.3325 1.84581 10.3325C1.7133 10.3325 1.58622 10.2799 1.49247 10.1862L0.159139 8.85289C0.110014 8.80712 0.0706126 8.75192 0.0432847 8.69059C0.0159567 8.62925 0.00126234 8.56304 7.7815e-05 8.49591C-0.00110671 8.42877 0.0112429 8.36209 0.0363902 8.29983C0.0615376 8.23757 0.0989673 8.18101 0.146446 8.13353C0.193926 8.08606 0.250481 8.04863 0.31274 8.02348C0.374999 7.99833 0.441685 7.98598 0.50882 7.98717C0.575956 7.98835 0.642165 8.00304 0.703497 8.03037C0.76483 8.0577 0.820031 8.0971 0.865805 8.14623L1.34581 8.62623V1.83289C1.34581 1.70029 1.39848 1.57311 1.49225 1.47934C1.58602 1.38557 1.7132 1.33289 1.84581 1.33289C1.97841 1.33289 2.10559 1.38557 2.19936 1.47934C2.29313 1.57311 2.34581 1.70029 2.34581 1.83289V8.62623Z" fill="#E8E8F0"/>
</svg>
