<svg width="12" height="11" viewBox="0 0 12 11" fill="none" xmlns="http://www.w3.org/2000/svg">
<path fill-rule="evenodd" clip-rule="evenodd" d="M3 10.7999C2.20435 10.7999 1.44129 10.4838 0.87868 9.92122C0.316071 9.35861 0 8.59555 0 7.7999V5.9999C0 5.84077 0.0632141 5.68816 0.175736 5.57564C0.288258 5.46312 0.44087 5.3999 0.6 5.3999C0.75913 5.3999 0.911742 5.46312 1.02426 5.57564C1.13679 5.68816 1.2 5.84077 1.2 5.9999V7.7999C1.2 8.27729 1.38964 8.73513 1.72721 9.0727C2.06477 9.41026 2.52261 9.5999 3 9.5999H9C9.47739 9.5999 9.93523 9.41026 10.2728 9.0727C10.6104 8.73513 10.8 8.27729 10.8 7.7999V5.9999C10.8 5.84077 10.8632 5.68816 10.9757 5.57564C11.0883 5.46312 11.2409 5.3999 11.4 5.3999C11.5591 5.3999 11.7117 5.46312 11.8243 5.57564C11.9368 5.68816 12 5.84077 12 5.9999V7.7999C12 8.59555 11.6839 9.35861 11.1213 9.92122C10.5587 10.4838 9.79565 10.7999 9 10.7999H3Z" fill="white"/>
<path fill-rule="evenodd" clip-rule="evenodd" d="M3.17123 3.65993C3.11607 3.60358 3.07255 3.5369 3.04318 3.46372C3.01381 3.39054 2.99915 3.31229 3.00004 3.23344C3.00093 3.15459 3.01736 3.07668 3.04838 3.00419C3.0794 2.93169 3.12441 2.86602 3.18083 2.81093L5.88083 0.170927C5.99293 0.061351 6.14347 0 6.30023 0C6.45699 0 6.60752 0.061351 6.71963 0.170927L9.41963 2.81093C9.47717 2.86572 9.52326 2.9314 9.55522 3.00415C9.58718 3.0769 9.60437 3.15527 9.60579 3.23471C9.60721 3.31416 9.59284 3.3931 9.56351 3.46695C9.53418 3.54079 9.49047 3.60808 9.43492 3.6649C9.37938 3.72171 9.3131 3.76693 9.23993 3.79793C9.16677 3.82892 9.08818 3.84508 9.00872 3.84545C8.92926 3.84583 8.85052 3.83042 8.77706 3.80011C8.70361 3.76981 8.63691 3.72522 8.58083 3.66893L6.90023 2.02553V7.19993C6.90023 7.35906 6.83701 7.51167 6.72449 7.62419C6.61197 7.73671 6.45936 7.79993 6.30023 7.79993C6.1411 7.79993 5.98848 7.73671 5.87596 7.62419C5.76344 7.51167 5.70023 7.35906 5.70023 7.19993V2.02553L4.02023 3.66893C3.96387 3.72409 3.8972 3.7676 3.82402 3.79697C3.75084 3.82635 3.67259 3.84101 3.59374 3.84012C3.51489 3.83922 3.43698 3.8228 3.36449 3.79178C3.29199 3.76076 3.22632 3.71575 3.17123 3.65933V3.65993Z" fill="white"/>
</svg>
