<svg width="24" height="22" viewBox="0 0 24 22" fill="none" xmlns="http://www.w3.org/2000/svg">
<path d="M22.7998 11.7998C22.8528 11.7998 22.9039 11.8209 22.9414 11.8584C22.9789 11.8959 23 11.947 23 12V15.5996C23 16.9257 22.4728 18.1981 21.5352 19.1357C20.5975 20.0732 19.3259 20.5996 18 20.5996H6C4.6741 20.5996 3.40249 20.0732 2.46484 19.1357C1.52716 18.1981 1 16.9257 1 15.5996V12C1 11.947 1.02109 11.8959 1.05859 11.8584C1.0961 11.8209 1.14715 11.7998 1.2002 11.7998C1.25317 11.7999 1.30434 11.8209 1.3418 11.8584C1.37918 11.8959 1.40039 11.947 1.40039 12V15.5996C1.40039 16.8196 1.88446 17.9899 2.74707 18.8525C3.60974 19.7152 4.78 20.2002 6 20.2002H18C19.22 20.2002 20.3903 19.7152 21.2529 18.8525C22.1155 17.9899 22.5996 16.8196 22.5996 15.5996V12C22.5996 11.947 22.6208 11.8959 22.6582 11.8584C22.6957 11.8209 22.7468 11.7999 22.7998 11.7998Z" fill="white" stroke="#80A8FF" stroke-width="2"/>
<path d="M12.6006 1C12.6266 1.00002 12.6521 1.00503 12.6758 1.01465L12.7402 1.05664L18.1396 6.33691L18.1494 6.3457C18.1686 6.36394 18.1847 6.38595 18.1953 6.41016C18.206 6.4344 18.2114 6.46084 18.2119 6.4873C18.2124 6.51374 18.207 6.53987 18.1973 6.56445C18.1875 6.58899 18.1737 6.61196 18.1553 6.63086C18.1368 6.64976 18.1142 6.66447 18.0898 6.6748C18.0655 6.68514 18.0392 6.6903 18.0127 6.69043C17.9862 6.69055 17.96 6.68587 17.9355 6.67578C17.9233 6.67071 17.9114 6.66459 17.9004 6.65723L17.8701 6.63184L17.8604 6.62305L14.5 3.33594L12.8008 1.6748V14.3994C12.8008 14.4523 12.7795 14.5035 12.7422 14.541C12.7047 14.5785 12.6536 14.5996 12.6006 14.5996C12.5475 14.5996 12.4965 14.5785 12.459 14.541C12.4216 14.5035 12.4004 14.4524 12.4004 14.3994V1.67383L10.7012 3.33594L7.34082 6.62305C7.32204 6.64143 7.29978 6.65622 7.27539 6.66602C7.25118 6.67571 7.22529 6.6809 7.19922 6.68066C7.17294 6.68037 7.14624 6.6744 7.12207 6.66406C7.09802 6.65373 7.07591 6.63885 7.05762 6.62012L7.05176 6.61426C7.03598 6.59678 7.02344 6.57658 7.01465 6.55469C7.00493 6.53044 6.99975 6.50464 7 6.47852C7.0003 6.45223 7.00626 6.42553 7.0166 6.40137C7.02176 6.3894 7.02781 6.37788 7.03516 6.36719L7.06055 6.33691L12.4609 1.05664C12.4983 1.02031 12.5485 1 12.6006 1Z" fill="white" stroke="#80A8FF" stroke-width="2"/>
</svg>
