<svg width="16" height="16" viewBox="0 0 16 16" fill="none" xmlns="http://www.w3.org/2000/svg">
<path d="M10.0007 12.752C10.5694 12.9169 11.1585 13.0004 11.7507 13C12.703 13.0023 13.6431 12.7851 14.498 12.3653C14.4998 12.3271 14.5007 12.2887 14.5007 12.25C14.5007 11.6619 14.3123 11.0893 13.9629 10.6162C13.6136 10.1432 13.1218 9.79451 12.5598 9.62148C11.9978 9.44846 11.395 9.46016 10.8401 9.65487C10.2852 9.84958 9.80736 10.217 9.47667 10.7033M10.0007 12.752V12.75C10.0007 12.008 9.81067 11.31 9.47667 10.7033M10.0007 12.752V12.8227C8.7179 13.596 7.24782 14.0031 5.75 14C4.196 14 2.742 13.57 1.50067 12.8227L1.5 12.75C1.49949 11.8063 1.81308 10.8893 2.39132 10.1435C2.96957 9.39773 3.77958 8.86562 4.69366 8.63107C5.60774 8.39651 6.57388 8.47285 7.43978 8.84806C8.30567 9.22327 9.02273 9.87599 9.47667 10.7033M8.00067 4.25C8.00067 4.84674 7.76361 5.41903 7.34166 5.84099C6.9197 6.26295 6.3474 6.5 5.75067 6.5C5.15393 6.5 4.58163 6.26295 4.15968 5.84099C3.73772 5.41903 3.50067 4.84674 3.50067 4.25C3.50067 3.65326 3.73772 3.08097 4.15968 2.65901C4.58163 2.23705 5.15393 2 5.75067 2C6.3474 2 6.9197 2.23705 7.34166 2.65901C7.76361 3.08097 8.00067 3.65326 8.00067 4.25ZM13.5007 5.75C13.5007 6.21413 13.3163 6.65925 12.9881 6.98744C12.6599 7.31563 12.2148 7.5 11.7507 7.5C11.2865 7.5 10.8414 7.31563 10.5132 6.98744C10.185 6.65925 10.0007 6.21413 10.0007 5.75C10.0007 5.28587 10.185 4.84075 10.5132 4.51256C10.8414 4.18437 11.2865 4 11.7507 4C12.2148 4 12.6599 4.18437 12.9881 4.51256C13.3163 4.84075 13.5007 5.28587 13.5007 5.75Z" stroke="white" stroke-linecap="round" stroke-linejoin="round"/>
</svg>
